<svg width="54" height="54" viewBox="0 0 54 54" fill="none" xmlns="http://www.w3.org/2000/svg">
<path fill-rule="evenodd" clip-rule="evenodd" d="M38.1696 7.3669L43.1096 12.3069C50.3699 19.5672 54 23.1973 54 27.7082C54 32.2191 50.3699 35.8493 43.1096 43.1096C35.8493 50.3699 32.2191 54 27.7082 54C23.1973 54 19.5672 50.3699 12.3069 43.1096L7.3669 38.1696C3.19397 33.9968 1.10749 31.9102 0.331134 29.2032C-0.445251 26.4962 0.218247 23.621 1.54524 17.8706L2.3105 14.5545C3.4269 9.71679 3.98513 7.29789 5.64149 5.64149C7.29789 3.98513 9.71677 3.4269 14.5545 2.3105L17.8706 1.54524C23.621 0.218247 26.4962 -0.445251 29.2032 0.331134C31.9102 1.10749 33.9968 3.19397 38.1696 7.3669ZM24.6961 33.2867C22.879 31.4699 22.8944 28.8627 23.9811 26.7967C23.4379 26.0078 23.5173 24.9197 24.2187 24.2182C24.9178 23.5192 26.0005 23.4379 26.7886 23.9747C27.7061 23.4868 28.7145 23.2289 29.7192 23.2384C30.8375 23.2489 31.7355 24.1642 31.725 25.2825C31.7145 26.4009 30.7992 27.2989 29.6808 27.2884C29.2032 27.2838 28.5755 27.4982 28.0371 28.0365C26.9908 29.0828 27.266 30.129 27.5597 30.4231C27.8537 30.7168 28.9 30.992 29.9462 29.9457C32.0633 27.8289 35.718 27.1261 38.0603 29.4683C39.8774 31.2854 39.862 33.8926 38.7752 35.9586C39.3185 36.7475 39.2391 37.8357 38.5376 38.5371C37.8386 39.2361 36.7554 39.3171 35.9673 38.7804C34.7336 39.4359 33.3304 39.6816 31.9923 39.4065C30.8969 39.1816 30.1914 38.111 30.4166 37.0154C30.6415 35.92 31.712 35.2145 32.8077 35.4394C33.2859 35.5379 34.057 35.3808 34.7193 34.7188C35.7656 33.6722 35.4904 32.626 35.1967 32.3322C34.9026 32.0382 33.8564 31.7631 32.8101 32.8096C30.6931 34.9264 27.0383 35.6289 24.6961 33.2867ZM21.6567 22.3914C23.7654 20.2826 23.7654 16.8635 21.6567 14.7547C19.5478 12.6458 16.1287 12.6458 14.0198 14.7547C11.911 16.8635 11.911 20.2826 14.0198 22.3914C16.1287 24.5003 19.5478 24.5003 21.6567 22.3914Z" fill="#00E194"/>
</svg>
