<svg width="60" height="55" viewBox="0 0 60 55" fill="none" xmlns="http://www.w3.org/2000/svg">
<path d="M52.3476 19.209H50.1882V39.206H52.3476C54.1754 39.2038 55.9278 38.4768 57.2203 37.1843C58.5128 35.8918 59.2399 34.1395 59.2419 32.3116V26.1146C59.2423 24.2849 58.5163 22.53 57.2235 21.2352C55.9309 19.9404 54.1772 19.2117 52.3476 19.209Z" fill="#00E194"/>
<path d="M50.1882 36.9584V39.2078H47.9388C47.3422 39.2078 46.7701 38.9708 46.3482 38.5489C45.9264 38.1272 45.6894 37.5549 45.6894 36.9584C45.6884 36.6627 45.7459 36.3697 45.8586 36.0964C45.9711 35.823 46.1368 35.5747 46.3459 35.3656C46.555 35.1565 46.8034 34.9908 47.0767 34.8781C47.3501 34.7655 47.6431 34.708 47.9388 34.709C48.5354 34.709 49.1074 34.946 49.5293 35.3678C49.9512 35.7897 50.1882 36.3618 50.1882 36.9584Z" fill="#00E194"/>
<path d="M45.6894 36.9566V21.4584C45.6894 20.8617 45.9264 20.2896 46.3482 19.8678C46.7701 19.446 47.3422 19.209 47.9388 19.209H50.1882V36.9566C50.1882 36.3599 49.9512 35.7878 49.5293 35.366C49.1074 34.9442 48.5354 34.7072 47.9388 34.7072C47.6431 34.7061 47.3501 34.7635 47.0767 34.8762C46.8034 34.9889 46.555 35.1546 46.3459 35.3637C46.1368 35.5728 45.9711 35.8212 45.8586 36.0945C45.7459 36.3679 45.6884 36.6609 45.6894 36.9566Z" fill="#00E194"/>
<path d="M47.9388 39.207H50.1882V44.691C50.1919 44.8152 50.1843 44.9393 50.1657 45.0621C50.0999 45.6069 49.8371 46.1088 49.427 46.4734C49.0168 46.838 48.4875 47.04 47.9388 47.0416C47.3422 47.0416 46.77 46.8046 46.3482 46.3827C45.9264 45.9609 45.6894 45.3887 45.6894 44.7922V36.9531C45.6888 37.2489 45.7465 37.5419 45.8593 37.8153C45.9721 38.0887 46.1377 38.3372 46.3467 38.5466C46.5555 38.7559 46.8037 38.922 47.0769 39.0354C47.3501 39.1486 47.643 39.207 47.9388 39.207Z" fill="#00E194"/>
<path d="M50.1654 45.0668C50.0738 46.8304 49.3087 48.4916 48.0279 49.7075C46.7471 50.9234 45.0483 51.6012 43.2823 51.6012H41.944C42.269 50.8958 42.4378 50.1286 42.4388 49.3519C42.4378 48.5752 42.269 47.8079 41.944 47.1025H43.2823C43.9031 47.1016 44.4996 46.8616 44.9479 46.4322C45.3962 46.0027 45.6617 45.417 45.6892 44.7969C45.6892 45.3934 45.9262 45.9655 46.348 46.3874C46.7698 46.8093 47.342 47.0463 47.9386 47.0463C48.4873 47.0447 49.0166 46.8427 49.4267 46.4781C49.8369 46.1134 50.0995 45.6116 50.1654 45.0668Z" fill="#00E194"/>
<path d="M41.9437 47.1022C41.5159 46.174 40.8306 45.3882 39.9695 44.8379C39.1082 44.2877 38.1071 43.9961 37.0851 43.9981H27.7952C26.3769 43.9999 25.0174 44.5648 24.0155 45.5687C23.0138 46.5727 22.4516 47.9333 22.4529 49.3516C22.454 50.7681 23.0174 52.1262 24.0189 53.1278C25.0205 54.1295 26.3786 54.6927 27.7952 54.6938H37.0851C38.105 54.6926 39.1035 54.4012 39.9638 53.8535C40.8242 53.3058 41.511 52.5245 41.9437 51.601C42.2688 50.8956 42.4376 50.1283 42.4386 49.3516C42.4376 48.5749 42.2688 47.8076 41.9437 47.1022Z" fill="#00E194"/>
<path d="M45.6893 21.4596V7.36723C45.6875 6.77126 45.45 6.20014 45.0285 5.77872C44.6071 5.35718 44.036 5.11965 43.4399 5.11785H16.5711C15.9746 5.11785 15.4023 5.35493 14.9806 5.77669C14.5587 6.19856 14.3217 6.77069 14.3217 7.36723V21.4596C14.3199 20.8636 14.0824 20.2925 13.661 19.8711C13.2394 19.4496 12.6683 19.212 12.0723 19.2102H9.82297V7.36723C9.82623 5.57852 10.5383 3.86405 11.8031 2.59926C13.0679 1.33444 14.7824 0.622413 16.5711 0.619141H43.4399C45.2281 0.624483 46.9413 1.33716 48.2057 2.60153C49.4701 3.86585 50.1828 5.5792 50.188 7.36723V19.2102H47.9387C47.3421 19.2102 46.7699 19.4473 46.3481 19.869C45.9263 20.2909 45.6893 20.863 45.6893 21.4596Z" fill="#00E194"/>
<path d="M14.3217 36.9566C14.3199 37.5525 14.0824 38.1237 13.661 38.5451C13.2394 38.9666 12.6683 39.2042 12.0723 39.206C11.4758 39.206 10.9036 38.969 10.4818 38.5471C10.0599 38.1252 9.82297 37.5531 9.82297 36.9566V19.209H12.0723C12.6683 19.2108 13.2394 19.4483 13.661 19.8697C14.0824 20.2913 14.3199 20.8623 14.3217 21.4584V36.9566Z" fill="#00E194"/>
<path d="M9.82308 36.9566V19.209H7.65243C5.82279 19.2117 4.06909 19.9404 2.77641 21.2352C1.48372 22.53 0.757795 24.2849 0.758087 26.1146V32.3116C0.760179 34.1395 1.48721 35.8918 2.7797 37.1843C4.0722 38.4768 5.82459 39.2038 7.65243 39.206H12.0725C11.4759 39.206 10.9037 38.969 10.4819 38.5471C10.0601 38.1252 9.82308 37.5531 9.82308 36.9566Z" fill="#00E194"/>
</svg>
