<svg width="14" height="12" viewBox="0 0 14 12" fill="none" xmlns="http://www.w3.org/2000/svg">
<path d="M7.17231 11.1659C9.56848 11.1659 11.1659 10.3132 11.1659 9.045C11.1659 7.94405 10.2647 7.71739 10.2647 7.07517C10.2647 6.1955 13.4002 6.05518 13.4002 3.76695C13.4002 1.5003 11.058 0 7.57707 0C3.04918 0 0 2.29903 0 5.67201C0 8.95865 2.89267 11.1659 7.17231 11.1659ZM7.17231 10.011C3.54568 10.011 1.14951 8.27326 1.14951 5.67201C1.14951 2.95743 3.69679 1.14951 7.57707 1.14951C10.3942 1.14951 12.2507 2.20728 12.2507 3.76695C12.2507 5.59646 9.09896 5.39678 9.09896 7.032C9.09896 7.96564 10.0056 8.21929 10.0056 8.88849C10.0056 9.56848 8.88309 10.011 7.17231 10.011ZM7.59326 3.83171C8.09516 3.83171 8.49452 3.43235 8.49452 2.93585C8.49452 2.43395 8.09516 2.03458 7.59326 2.03458C7.09676 2.03458 6.6866 2.43395 6.6866 2.93585C6.6866 3.43235 7.09676 3.83171 7.59326 3.83171ZM4.90027 4.6898C5.5155 4.6898 6.0174 4.19869 6.0174 3.57267C6.0174 2.95743 5.51011 2.46633 4.90027 2.46633C4.27964 2.46633 3.77774 2.95743 3.77774 3.57267C3.77774 4.19869 4.27964 4.6898 4.90027 4.6898ZM10.0218 4.17171C10.4212 4.17171 10.745 3.8533 10.745 3.44314C10.745 3.03838 10.4212 2.70918 10.0218 2.70918C9.61166 2.70918 9.28245 3.03838 9.28245 3.44314C9.28245 3.8479 9.61166 4.17171 10.0218 4.17171ZM2.96283 6.39518C3.45394 6.39518 3.8533 5.98502 3.8533 5.49392C3.8533 5.00281 3.45933 4.60885 2.96283 4.60885C2.47172 4.60885 2.07236 5.00281 2.07236 5.49392C2.07236 5.98502 2.47712 6.39518 2.96283 6.39518ZM6.70819 8.78055C7.56088 8.78055 8.23548 8.10596 8.23548 7.25327C8.23548 6.41677 7.55009 5.72598 6.70819 5.72598C5.86629 5.72598 5.1809 6.41677 5.1809 7.25327C5.1809 8.09516 5.86629 8.78055 6.70819 8.78055ZM6.70819 8.06818C6.25486 8.06818 5.89328 7.7066 5.89328 7.24787C5.89328 6.74597 6.27645 6.44915 6.692 6.44375C7.12374 6.43835 7.5231 6.72978 7.5231 7.24787C7.5231 7.7066 7.16152 8.06818 6.70819 8.06818Z" fill="#00E194"/>
</svg>
