<svg width="13" height="13" viewBox="0 0 13 13" fill="none" xmlns="http://www.w3.org/2000/svg">
<path d="M9.4228 4.29135L9.21162 4.50253L9.29744 4.78859L9.3019 4.80346L11.133 11.5433C11.1456 11.6107 11.143 11.6801 11.1254 11.7464C11.1077 11.8127 11.0755 11.8742 11.0312 11.9264L10.5508 12.4069L8.14412 8.05077L8.11005 7.98909L8.06026 7.93924L7.27189 7.14982L6.91834 6.79579L6.56455 7.14958L4.4903 9.22381C4.28807 9.40262 4.06265 9.55337 3.82011 9.67197L3.43745 9.85908L3.56137 10.2666L4.02199 11.7814C4.03556 11.845 4.03437 11.911 4.01845 11.9742C4.00242 12.0379 3.97192 12.0969 3.92939 12.1467L3.75739 12.3197C3.75732 12.3198 3.75725 12.3198 3.75718 12.3199C3.75631 12.3207 3.75519 12.3211 3.75403 12.3211C3.75281 12.3211 3.75165 12.3206 3.75076 12.3198C3.75073 12.3198 3.7507 12.3197 3.75066 12.3197L2.66069 11.2308L2.65051 11.2195L2.64151 11.2095L2.63197 11.2L1.79855 10.3687L1.7981 10.3682L1.77755 10.3477L1.77739 10.3475L0.680299 9.24936C0.680265 9.24933 0.680231 9.24929 0.680198 9.24926C0.679375 9.24837 0.678916 9.24721 0.678916 9.246C0.678916 9.24481 0.679368 9.24365 0.680178 9.24277C0.680217 9.24273 0.680257 9.24269 0.680298 9.24265L0.853164 9.06979C0.902897 9.0278 0.961637 8.99773 1.0249 8.98195C1.08833 8.96613 1.15451 8.96514 1.2183 8.97899L2.73403 9.43779L3.14099 9.56097L3.32795 9.17908C3.44671 8.9365 3.59751 8.71099 3.7763 8.5086L5.85047 6.43445L6.2045 6.08042L5.84999 5.72687L5.06056 4.93956L5.01079 4.88993L4.94927 4.85594L0.593144 2.44933L1.07345 1.96903C1.12573 1.92468 1.18727 1.89249 1.25362 1.87486C1.32001 1.85722 1.38946 1.85462 1.4569 1.86719L8.19659 3.69818L8.21149 3.70265L8.49754 3.78846L8.70871 3.57729L11.1278 1.15822L11.1288 1.15727C11.2612 1.0241 11.6241 0.786414 12.0137 0.63052C12.2042 0.554295 12.3672 0.511738 12.484 0.502058C12.4893 0.501624 12.4943 0.501265 12.499 0.500972C12.4987 0.505643 12.4984 0.510549 12.4979 0.5157C12.4882 0.632416 12.4456 0.795302 12.3693 0.985813C12.2133 1.37516 11.9754 1.73876 11.8419 1.87229L9.4228 4.29135ZM12.496 0.421031C12.496 0.420997 12.4963 0.42173 12.4967 0.423331L12.496 0.421031ZM12.5789 0.50404C12.5789 0.504075 12.5781 0.503891 12.5767 0.503381L12.5789 0.50404Z" stroke="#00E194"/>
</svg>
