<svg width="13" height="11" viewBox="0 0 13 11" fill="none" xmlns="http://www.w3.org/2000/svg">
<path d="M4.36757 2.37334H4.47774H4.86757H4.97774H7.17222H7.2824H7.67222H7.7824H8.93093V9.5625H3.22974V2.37334H4.36757ZM6.94742 0V0.163697H6.94742L6.94742 0Z" stroke="#00E194"/>
<path d="M1.22035 2.35193H1.61955V9.5518H1.22035C0.846622 9.5518 0.5 9.28722 0.5 8.79933H0L0.5 8.79927V8.79908V8.79875V8.7983V8.79772V8.79701V8.79618V8.79521V8.79413V8.79291V8.79158V8.79011V8.78853V8.78682V8.78498V8.78303V8.78095V8.77875V8.77643V8.77399V8.77143V8.76875V8.76595V8.76303V8.76V8.75685V8.75358V8.75019V8.74669V8.74307V8.73934V8.73549V8.73153V8.72746V8.72327V8.71897V8.71456V8.71004V8.70541V8.70066V8.69581V8.69085V8.68578V8.6806V8.67531V8.66992V8.66441V8.65881V8.65309V8.64727V8.64135V8.63532V8.62919V8.62296V8.61662V8.61018V8.60364V8.597V8.59026V8.58341V8.57647V8.56943V8.56229V8.55505V8.54771V8.54028V8.53275V8.52512V8.5174V8.50958V8.50167V8.49367V8.48557V8.47737V8.46909V8.46071V8.45224V8.44368V8.43503V8.42629V8.41746V8.40855V8.39954V8.39044V8.38126V8.37199V8.36264V8.35319V8.34367V8.33405V8.32436V8.31458V8.30471V8.29476V8.28473V8.27462V8.26443V8.25416V8.2438V8.23337V8.22285V8.21226V8.20159V8.19084V8.18002V8.16911V8.15813V8.14708V8.13595V8.12474V8.11346V8.10211V8.09068V8.07919V8.06761V8.05597V8.04426V8.03247V8.02061V8.00869V7.9967V7.98463V7.9725V7.9603V7.94803V7.9357V7.9233V7.91084V7.89831V7.88571V7.87305V7.86033V7.84755V7.8347V7.82179V7.80881V7.79578V7.78269V7.76953V7.75632V7.74305V7.72972V7.71633V7.70288V7.68938V7.67582V7.6622V7.64853V7.6348V7.62102V7.60718V7.59329V7.57935V7.56536V7.55131V7.53721V7.52306V7.50886V7.49461V7.48031V7.46597V7.45157V7.43713V7.42263V7.4081V7.39351V7.37888V7.3642V7.34948V7.33472V7.31991V7.30506V7.29016V7.27522V7.26024V7.24522V7.23016V7.21506V7.19991V7.18473V7.16951V7.15425V7.13896V7.12363V7.10825V7.09285V7.07741V7.06193V7.04642V7.03087V7.01529V6.99968V6.98403V6.96835V6.95264V6.9369V6.92113V6.90533V6.88949V6.87363V6.85774V6.84183V6.82588V6.80991V6.79391V6.77788V6.76183V6.74576V6.72966V6.71353V6.69738V6.68121V6.66502V6.6488V6.63257V6.61631V6.60003V6.58373V6.56741V6.55107V6.53472V6.51834V6.50195V6.48554V6.46912V6.45268V6.43622V6.41975V6.40326V6.38676V6.37025V6.35372V6.33719V6.32064V6.30407V6.2875V6.27092V6.25432V6.23772V6.22111V6.20449V6.18786V6.17123V6.15459V6.13794V6.12128V6.10463V6.08796V6.07129V6.05462V6.03795V6.02127V6.00459V5.98791V5.97122V5.95454V5.93785V5.92117V5.90449V5.8878V5.87112V5.85444V5.83777V5.8211V5.80443V5.78777V5.77111V5.75445V5.73781V5.72116V5.70453V5.6879V5.67128V5.65467V5.63807V5.62148V5.60489V5.58832V5.57176V5.55521V5.53867V5.52215V5.50563V5.48913V5.47265V5.45618V5.43972V5.42328V5.40686V5.39045V5.37406V5.35768V5.34133V5.32499V5.30867V5.29238V5.2761V5.25984V5.2436V5.22739V5.21119V5.19502V5.17888V5.16275V5.14665V5.13058V5.11453V5.0985V5.08251V5.06653V5.05059V5.03467V5.01878V5.00292V4.98709V4.97129V4.95552V4.93978V4.92407V4.9084V4.89275V4.87714V4.86156V4.84601V4.8305V4.81503V4.79959V4.78418V4.76881V4.75348V4.73818V4.72293V4.70771V4.69253V4.67739V4.66229V4.64723V4.63221V4.61723V4.60229V4.5874V4.57255V4.55774V4.54297V4.52825V4.51358V4.49895V4.48437V4.46983V4.45534V4.4409V4.4265V4.41216V4.39786V4.38361V4.36941V4.35527V4.34117V4.32713V4.31313V4.29919V4.2853V4.27147V4.25769V4.24397V4.2303V4.21668V4.20312V4.18962V4.17618V4.16279V4.14946V4.13619V4.12298V4.10983V4.09673V4.0837V4.07073V4.05782V4.04498V4.03219V4.01947V4.00682V3.99422V3.9817V3.96923V3.95684V3.94451V3.93224V3.92004V3.90792V3.89585V3.88386V3.87194V3.86009V3.8483V3.83659V3.82495V3.81338V3.80188V3.79046V3.77911V3.76783V3.75663V3.7455V3.73445V3.72347V3.71257V3.70175V3.691V3.68034V3.66975V3.65924V3.6488V3.63845V3.62818V3.61799V3.60788V3.59785V3.58791V3.57805V3.56827V3.55858V3.54897V3.53944V3.53V3.52065V3.51138V3.5022V3.49311V3.48411V3.47519V3.46637V3.45763V3.44898V3.44042V3.43196V3.42359V3.4153V3.40711V3.39902V3.39102V3.38311V3.37529V3.36758V3.35995V3.35243V3.345V3.33766V3.33043V3.32329V3.31625V3.30931V3.30247V3.29573V3.28909V3.28256V3.27612V3.26979V3.26355V3.25743V3.2514V3.24548V3.23967V3.23396V3.22835V3.22286V3.21747V3.21218V3.20701V3.20194V3.19698V3.19213V3.18739V3.18276V3.17824V3.17384V3.16954V3.16536V3.16129V3.15733V3.15349V3.14976V3.14615V3.14265V3.13927V3.136V3.13285V3.12982V3.12691V3.12411V3.12144V3.11888V3.11645V3.11413V3.11193V3.10986V3.10791V3.10608V3.10438V3.10279V3.10133V3.1V3.09879V3.09771V3.09675V3.09592V3.09522V3.09464V3.09419V3.09387V3.09368C0.5 2.67172 0.856425 2.35193 1.22035 2.35193Z" stroke="#00E194"/>
<path d="M10.9403 9.5518H10.5411V2.35193H10.9403C11.3043 2.35193 11.6607 2.67172 11.6607 3.09368V3.09387V3.09419V3.09464V3.09522V3.09592V3.09675V3.09771V3.09879V3.1V3.10133V3.10279V3.10438V3.10608V3.10791V3.10986V3.11193V3.11413V3.11645V3.11888V3.12144V3.12411V3.12691V3.12982V3.13285V3.136V3.13927V3.14265V3.14615V3.14976V3.15349V3.15733V3.16129V3.16536V3.16954V3.17384V3.17824V3.18276V3.18739V3.19213V3.19698V3.20194V3.20701V3.21218V3.21747V3.22286V3.22835V3.23396V3.23967V3.24548V3.2514V3.25743V3.26355V3.26979V3.27612V3.28256V3.28909V3.29573V3.30247V3.30931V3.31625V3.32329V3.33043V3.33766V3.345V3.35243V3.35995V3.36758V3.37529V3.38311V3.39102V3.39902V3.40711V3.4153V3.42359V3.43196V3.44042V3.44898V3.45763V3.46637V3.47519V3.48411V3.49311V3.5022V3.51138V3.52065V3.53V3.53944V3.54897V3.55858V3.56827V3.57805V3.58791V3.59785V3.60788V3.61799V3.62818V3.63845V3.6488V3.65924V3.66975V3.68034V3.691V3.70175V3.71257V3.72347V3.73445V3.7455V3.75663V3.76783V3.77911V3.79046V3.80188V3.81338V3.82495V3.83659V3.8483V3.86009V3.87194V3.88386V3.89585V3.90792V3.92004V3.93224V3.94451V3.95684V3.96923V3.9817V3.99422V4.00682V4.01947V4.03219V4.04498V4.05782V4.07073V4.0837V4.09673V4.10983V4.12298V4.13619V4.14946V4.16279V4.17618V4.18962V4.20312V4.21668V4.2303V4.24397V4.25769V4.27147V4.2853V4.29919V4.31313V4.32713V4.34117V4.35527V4.36941V4.38361V4.39786V4.41216V4.4265V4.4409V4.45534V4.46983V4.48437V4.49895V4.51358V4.52825V4.54297V4.55774V4.57255V4.5874V4.60229V4.61723V4.63221V4.64723V4.66229V4.67739V4.69253V4.70771V4.72293V4.73818V4.75348V4.76881V4.78418V4.79959V4.81503V4.8305V4.84601V4.86156V4.87714V4.89275V4.9084V4.92407V4.93978V4.95552V4.97129V4.98709V5.00292V5.01878V5.03467V5.05059V5.06653V5.08251V5.0985V5.11453V5.13058V5.14665V5.16275V5.17888V5.19502V5.21119V5.22739V5.2436V5.25984V5.2761V5.29238V5.30867V5.32499V5.34133V5.35768V5.37406V5.39045V5.40686V5.42328V5.43972V5.45618V5.47265V5.48913V5.50563V5.52215V5.53867V5.55521V5.57176V5.58832V5.60489V5.62148V5.63807V5.65467V5.67128V5.6879V5.70453V5.72116V5.73781V5.75445V5.77111V5.78777V5.80443V5.8211V5.83777V5.85444V5.87112V5.8878V5.90449V5.92117V5.93785V5.95454V5.97122V5.98791V6.00459V6.02127V6.03795V6.05462V6.07129V6.08796V6.10463V6.12128V6.13794V6.15459V6.17123V6.18786V6.20449V6.22111V6.23772V6.25432V6.27092V6.2875V6.30407V6.32064V6.33719V6.35372V6.37025V6.38676V6.40326V6.41975V6.43622V6.45268V6.46912V6.48554V6.50195V6.51834V6.53472V6.55107V6.56741V6.58373V6.60003V6.61631V6.63257V6.6488V6.66502V6.68121V6.69738V6.71353V6.72966V6.74576V6.76183V6.77788V6.79391V6.80991V6.82588V6.84183V6.85774V6.87363V6.88949V6.90533V6.92113V6.9369V6.95264V6.96835V6.98403V6.99968V7.01529V7.03087V7.04642V7.06193V7.07741V7.09285V7.10825V7.12363V7.13896V7.15425V7.16951V7.18473V7.19991V7.21506V7.23016V7.24522V7.26024V7.27522V7.29016V7.30506V7.31991V7.33472V7.34948V7.3642V7.37888V7.39351V7.4081V7.42263V7.43713V7.45157V7.46597V7.48031V7.49461V7.50886V7.52306V7.53721V7.55131V7.56536V7.57935V7.59329V7.60718V7.62102V7.6348V7.64853V7.6622V7.67582V7.68938V7.70288V7.71633V7.72972V7.74305V7.75632V7.76953V7.78269V7.79578V7.80881V7.82179V7.8347V7.84755V7.86033V7.87305V7.88571V7.89831V7.91084V7.9233V7.9357V7.94803V7.9603V7.9725V7.98463V7.9967V8.00869V8.02061V8.03247V8.04426V8.05597V8.06761V8.07919V8.09068V8.10211V8.11346V8.12474V8.13595V8.14708V8.15813V8.16911V8.18002V8.19084V8.20159V8.21226V8.22285V8.23337V8.2438V8.25416V8.26443V8.27462V8.28473V8.29476V8.30471V8.31458V8.32436V8.33405V8.34367V8.35319V8.36264V8.37199V8.38126V8.39044V8.39954V8.40855V8.41746V8.42629V8.43503V8.44368V8.45224V8.46071V8.46909V8.47737V8.48557V8.49367V8.50167V8.50958V8.5174V8.52512V8.53275V8.54028V8.54771V8.55505V8.56229V8.56943V8.57647V8.58341V8.59026V8.597V8.60364V8.61018V8.61662V8.62296V8.62919V8.63532V8.64135V8.64727V8.65309V8.65881V8.66441V8.66992V8.67531V8.6806V8.68578V8.69085V8.69581V8.70066V8.70541V8.71004V8.71456V8.71897V8.72327V8.72746V8.73153V8.73549V8.73934V8.74307V8.74669V8.75019V8.75358V8.75685V8.76V8.76303V8.76595V8.76875V8.77143V8.77399V8.77643V8.77875V8.78095V8.78303V8.78498V8.78682V8.78853V8.79011V8.79158V8.79291V8.79413V8.79521V8.79618V8.79701V8.79772V8.7983V8.79875V8.79908V8.79927L12.1607 8.79933H11.6607C11.6607 9.28722 11.3141 9.5518 10.9403 9.5518Z" stroke="#00E194"/>
</svg>
