<svg width="13" height="13" viewBox="0 0 13 13" fill="none" xmlns="http://www.w3.org/2000/svg">
<path d="M12.9855 6.49816C12.9901 6.34368 13.0308 4.13566 11.7241 2.69832C11.6661 2.56984 11.3907 2.05202 10.5019 1.41914C10.1079 1.11352 9.68941 0.840832 9.25068 0.60384L9.24894 0.602973C9.19348 0.57329 8.10972 0 6.79435 0C6.69446 0 6.59566 0.00584992 6.49795 0.0125665V0.0108331C5.495 -0.0110498 4.49878 0.246996 3.8984 0.518041C3.36584 0.758537 2.77456 1.16175 2.73188 1.19295C1.99435 1.60547 0.595775 3.261 0.48506 4.13826C0.0380797 4.70961 -0.335451 7.27598 0.485926 8.8392C1.06182 11.0117 3.22977 12.0989 3.40224 12.1823C3.5071 12.2493 4.68858 12.9796 6.14002 12.9796C6.2009 12.9796 6.56901 13 6.70031 13C8.26918 13 10.594 11.8942 11.0806 11.0279C12.4177 10.0499 13.1108 7.52947 12.9855 6.49816ZM3.41415 9.76175C2.79254 8.75622 2.43829 7.44238 2.36246 7.14056C2.55919 6.84569 3.52964 5.41484 4.08257 4.98433C4.39565 5.04197 5.703 5.28203 6.93604 5.50519C7.09096 5.90667 7.77064 7.67811 7.9652 8.36189C7.7507 8.61626 6.90809 9.59731 6.07848 10.3656C5.19774 10.3697 3.69972 9.86164 3.41415 9.76175ZM11.2284 2.72562C11.2258 2.82312 11.2026 3.16978 11.0366 3.56779C10.7071 3.39944 9.87879 3.03892 8.74346 2.97803C8.57165 2.72432 7.92512 1.83969 6.90398 1.2261C7.04373 0.952667 7.23829 0.619223 7.35204 0.517608C7.38887 0.507208 7.44607 0.497675 7.53317 0.497675C8.08068 0.497675 9.02664 0.856252 9.10898 0.888102C9.19629 0.934251 10.8967 1.84987 11.2284 2.72562ZM2.11741 6.93582C1.37577 6.80929 0.934856 6.57876 0.803124 6.50076C0.527309 5.50043 0.749391 4.41928 0.783624 4.26436C1.05576 3.77774 1.83055 2.53734 2.34166 2.30183C2.87141 2.19371 3.53202 2.32804 3.80112 2.39369C3.77577 2.7436 3.72702 3.72119 3.87175 4.74709C3.28546 5.21898 2.35748 6.57724 2.11741 6.93582ZM6.43165 0.331494C6.59805 0.343844 6.84223 0.380244 7.00949 0.42986C6.84266 0.651722 6.67171 0.980617 6.5909 1.14311C6.25073 1.1988 4.95876 1.44579 3.9452 2.10293C3.74088 2.04877 3.12382 1.90425 2.53948 1.95408C2.68421 1.67394 2.90044 1.46681 2.92362 1.44558C3.00401 1.38794 4.55143 0.305278 6.43165 0.328678V0.331494ZM10.5691 8.58484C10.3156 8.57444 9.33886 8.51876 8.26788 8.26721C8.0627 7.55179 7.38519 5.78772 7.23027 5.38646C7.72317 4.68392 8.22355 3.98666 8.73133 3.2948C9.96372 3.36239 10.8291 3.81197 10.9966 3.90579C11.7105 5.05388 11.8671 6.22646 11.8886 6.42233C11.5094 7.60227 10.7595 8.39678 10.5691 8.58484ZM0.358527 5.74569C0.376727 6.01998 0.42071 6.3088 0.500226 6.59436C0.428739 6.7794 0.379147 6.97217 0.352461 7.16873C0.307211 6.69536 0.309243 6.21866 0.358527 5.74569ZM2.44804 10.8067C2.77478 10.4919 3.17756 10.1855 3.33377 10.0698C3.68694 10.1942 5.13729 10.6845 6.0618 10.6845C6.21932 10.8958 6.73433 11.5572 7.36569 12.0629C6.97266 12.4475 6.405 12.6291 6.30468 12.6592C4.54385 12.7064 2.82894 11.7167 2.44804 10.8067ZM7.09833 12.6566C7.29809 12.5402 7.50631 12.3871 7.67855 12.1931C7.95957 12.1544 9.16553 11.9468 10.2554 11.1462C10.3273 11.154 10.4458 11.1636 10.5782 11.1599C9.92429 11.8006 8.32877 12.5162 7.09833 12.6566ZM10.4402 10.8418C10.8317 9.82177 10.815 9.05262 10.7957 8.80692C11.0106 8.59632 11.7482 7.81049 12.1575 6.61581C12.378 6.65264 12.5215 6.70876 12.5895 6.74017C12.6131 6.82684 12.6525 7.02703 12.6302 7.33058C12.4634 8.42321 11.8875 10.0605 10.8787 10.7844C10.7773 10.8362 10.5988 10.8475 10.4402 10.8418Z" fill="#00E194"/>
</svg>
