<svg width="15" height="11" viewBox="0 0 15 11" fill="none" xmlns="http://www.w3.org/2000/svg">
<path d="M5.38989 9.5792C6.10216 9.36804 6.67897 9.02732 7.11594 8.58582C7.49611 9.67518 8.35258 10.4478 9.60669 10.8221C11.809 11.4652 13.487 10.3422 14.1032 7.81799L14.929 4.44435C15.1606 3.49416 14.8242 2.86071 13.9371 2.60156L9.59358 1.32025C8.70653 1.06111 8.14283 1.41623 7.89813 2.38081L7.64905 3.39339L7.09846 1.13309C6.8625 0.178108 6.28569 -0.177012 5.403 0.0821297L1.05511 1.35384C0.168056 1.61299 -0.159675 2.23205 0.0719215 3.20143L0.889063 6.57987C1.50083 9.1041 3.18318 10.2223 5.38989 9.5792ZM5.17141 8.6722C3.47595 9.16169 2.19998 8.29788 1.71931 6.33992L0.906542 2.99508C0.810408 2.60636 0.93276 2.36642 1.28234 2.25604L5.61275 0.979528C5.9667 0.878751 6.18956 1.02272 6.28132 1.42103L7.09409 4.76108C7.57476 6.72864 6.8625 8.17311 5.17141 8.6722ZM9.82081 9.91512C8.64098 9.56 7.92871 8.73459 7.79325 7.57805C8.07292 6.93499 8.16905 6.16716 8.06855 5.31296L8.71527 2.65915C8.8114 2.26564 9.02989 2.12647 9.38384 2.22725L13.7099 3.49896C14.0638 3.60454 14.1862 3.84928 14.09 4.24759L13.2729 7.58764C12.7966 9.5552 11.5206 10.4094 9.82081 9.91512ZM5.38116 3.93087C5.69141 3.83969 5.83998 3.99805 5.97107 3.96926C6.0672 3.93566 6.10653 3.80609 6.06283 3.63333C5.97107 3.21583 5.56031 2.96148 5.18015 3.08146C4.78687 3.18703 4.54654 3.63333 4.65578 4.04124C4.70385 4.2188 4.79561 4.31478 4.89174 4.28599C5.02284 4.24759 5.07527 4.02204 5.38116 3.93087ZM2.82923 4.6891C3.13948 4.60271 3.28805 4.76108 3.41914 4.72269C3.51528 4.69869 3.5546 4.56912 3.51091 4.39636C3.41914 3.97406 3.00839 3.71971 2.62822 3.83969C2.23494 3.95006 1.99898 4.39156 2.10385 4.80427C2.15629 4.98183 2.24368 5.07301 2.33982 5.04901C2.47091 5.00582 2.52335 4.78027 2.82923 4.6891ZM9.50619 5.67767C9.82518 5.77845 10.1573 5.5673 10.249 5.20738C10.3321 4.85226 10.1398 4.48754 9.81207 4.38676C9.49308 4.29078 9.16098 4.50674 9.06922 4.86186C8.98619 5.22178 9.17846 5.58169 9.50619 5.67767ZM12.0363 6.42151C12.3596 6.51269 12.6917 6.30153 12.7835 5.94641C12.8665 5.58649 12.6743 5.22657 12.3465 5.1306C12.0275 5.02982 11.6954 5.24097 11.608 5.60089C11.5163 5.95601 11.7129 6.32553 12.0363 6.42151ZM4.93544 7.70762C5.84435 7.42928 6.42552 6.67585 6.45611 5.74006C6.46485 5.49531 6.27258 5.40413 6.08468 5.5673C5.50788 6.0136 4.88301 6.19596 4.59023 6.28234C4.29309 6.36872 3.67696 6.55588 2.96032 6.48389C2.72872 6.4503 2.602 6.63746 2.71998 6.83901C3.17881 7.63563 4.02654 7.96196 4.93544 7.70762ZM10.2185 8.2403C10.6948 8.37467 11.088 8.62421 11.525 9.04652C11.6954 9.21928 11.9139 9.1089 11.9008 8.86416C11.8746 8.02915 11.3153 7.3381 10.4938 7.10295C9.67224 6.85821 8.87695 7.15574 8.47056 7.85638C8.35258 8.05794 8.49241 8.27869 8.71964 8.2259C9.27022 8.09633 9.74653 8.09633 10.2185 8.2403Z" fill="#00E194"/>
</svg>
