<svg width="12" height="12" viewBox="0 0 12 12" fill="none" xmlns="http://www.w3.org/2000/svg">
<path d="M4.5007 0.500521L4.50071 0.500527M4.5007 0.500521L4.50071 0.500527M4.5007 0.500521L4.1008 0.200379L4.50071 0.500527M4.5007 0.500521C4.66481 0.623692 4.81275 0.766311 4.94144 0.924934C4.81276 0.766307 4.66482 0.623691 4.50071 0.500527M9.65128 6.50458C9.71898 6.50868 9.78661 6.51555 9.85397 6.52519C9.85397 6.52519 9.85398 6.52519 9.85398 6.52519L9.65128 6.50458ZM9.65128 6.50458C9.71899 6.50868 9.78662 6.51554 9.854 6.52517L9.65128 6.50458ZM8.56264 3.43945C8.62985 3.22767 8.6857 3.00711 8.74086 2.78661L8.73868 2.79537C8.6843 3.01324 8.62894 3.23073 8.56264 3.43945ZM8.15234 4.29688C8.15235 4.29688 8.15235 4.29688 8.15235 4.29688C8.15234 4.29688 8.15234 4.29689 8.15233 4.2969L8.15234 4.29688ZM8.75912 2.71344L8.76132 2.70463C8.81624 2.48457 8.87217 2.26489 8.93937 2.05425C8.87125 2.26797 8.81484 2.49073 8.75912 2.71344ZM9.34766 1.20312C9.34584 1.20554 9.34403 1.20797 9.34222 1.2104C9.34402 1.20797 9.34584 1.20554 9.34765 1.20312C9.34766 1.20312 9.34766 1.20311 9.34767 1.2031L9.34766 1.20312ZM5.475 2.14731L4.98 2.21784L5.475 2.14731C5.475 2.14731 5.475 2.14732 5.475 2.14733C5.50396 2.35045 5.50772 2.5559 5.48655 2.75906C5.50772 2.55588 5.50394 2.35043 5.475 2.14731ZM7 9L6.99999 9.00004L6.99993 9.00006L5.49359 9.57943L2.42061 6.50646L3.00001 5.00001L3.00002 5.00002L7 9ZM0.500087 11.5L0.500036 11.5L0.500015 11.5L0.500023 11.5L1.63494 8.54919L3.45082 10.3651L0.500087 11.5ZM4.99949 4.00068C5.19655 3.73812 5.33997 3.43931 5.42157 3.12132L5.46245 2.93174C5.4513 2.99533 5.43768 3.05857 5.42158 3.1213C5.34002 3.43924 5.19658 3.73805 4.99954 4.00065C4.99952 4.00067 4.9995 4.00066 4.99949 4.00068Z" stroke="#00E194"/>
</svg>
