<svg width="13" height="12" viewBox="0 0 13 12" fill="none" xmlns="http://www.w3.org/2000/svg">
<path d="M1.45988 8.87927H3.6047V7.96435H1.53987C1.12991 7.96435 0.914925 7.73936 0.914925 7.3494V1.53487C0.914925 1.13991 1.12991 0.914925 1.53987 0.914925H4.43963C4.52963 0.914925 4.57462 0.964921 4.57962 1.03991C4.58962 1.05491 4.59962 1.07491 4.60962 1.07991C5.09458 0.649947 5.56454 0.554954 6.53946 0.574953C6.52946 0.554954 6.51946 0.524957 6.50946 0.499959C6.27448 0.154987 5.86952 0 5.38456 0H1.45988C0.504958 0 0 0.514958 0 1.46988V7.40939C0 8.36931 0.504958 8.87927 1.45988 8.87927ZM4.33964 2.83477V10.3491C4.33964 11.3491 4.8596 11.874 5.84952 11.874H10.7891C11.779 11.874 12.299 11.3491 12.299 10.3491V2.83477C12.299 1.82985 11.784 1.30989 10.7891 1.30989H5.84952C4.8546 1.30989 4.33964 1.82985 4.33964 2.83477ZM2.4048 2.4648C2.4048 3.01975 2.85477 3.47471 3.41472 3.47971C3.47971 3.47971 3.53971 3.47471 3.6047 3.46472L3.6097 2.89976C3.54971 2.92976 3.48971 2.94476 3.41972 2.94476C3.15474 2.93976 2.94476 2.72978 2.94476 2.4598C2.94476 2.19482 3.15474 1.98484 3.42472 1.98484C3.53971 1.98484 3.6397 2.02483 3.71969 2.09483C3.75969 1.90984 3.82469 1.74486 3.90968 1.58987C3.76969 1.49988 3.6047 1.44488 3.42472 1.44488C2.86476 1.44488 2.4048 1.90484 2.4048 2.4648ZM5.33456 2.89476C5.33456 2.50479 5.52955 2.30481 5.92951 2.30481H10.7091C11.1091 2.30481 11.3041 2.50479 11.3041 2.89476V10.2842C11.3041 10.6741 11.1041 10.8791 10.7091 10.8791H5.92951C5.53454 10.8791 5.33456 10.6741 5.33456 10.2842V2.89476ZM8.31932 5.35956C8.95926 5.35956 9.48422 4.8496 9.47422 4.20465C9.46922 3.55971 8.95926 3.05975 8.31932 3.04975C7.67937 3.04475 7.16441 3.55971 7.16441 4.20465C7.16441 4.8496 7.67937 5.35956 8.31932 5.35956ZM8.31932 4.73461C8.02434 4.73461 7.78936 4.49463 7.78936 4.20465C7.78936 3.89468 8.02434 3.6697 8.31932 3.6697C8.60929 3.6697 8.84927 3.90968 8.84927 4.20465C8.84927 4.49463 8.61429 4.73461 8.31932 4.73461ZM1.64486 5.66953C1.64486 6.65445 2.4348 7.44439 3.41472 7.44439C3.47971 7.44439 3.54471 7.43939 3.6047 7.43439V6.34948C3.54471 6.36448 3.47971 6.37448 3.40972 6.37448C3.02475 6.37448 2.71478 6.0645 2.71478 5.67453C2.71478 5.28457 3.02475 4.97459 3.40972 4.97459C3.47971 4.97459 3.54471 4.98459 3.6047 5.00459V3.91468C3.53971 3.90468 3.47971 3.89968 3.41472 3.89968C2.4348 3.89968 1.64486 4.69461 1.64486 5.66953ZM8.31932 10.1242C9.43422 10.1242 10.3342 9.22924 10.3342 8.10933C10.3342 6.98443 9.43422 6.0945 8.31932 6.0895C7.20441 6.0845 6.30448 6.98443 6.30448 8.10933C6.30448 9.22924 7.20441 10.1242 8.31932 10.1242ZM8.31932 8.90927C7.87935 8.90927 7.51438 8.5493 7.51438 8.10933C7.51438 7.64437 7.86935 7.2994 8.31932 7.2994C8.76928 7.2994 9.12425 7.64437 9.12425 8.10933C9.12425 8.5493 8.76928 8.90927 8.31932 8.90927Z" fill="#00E194"/>
</svg>
