<svg width="13" height="9" viewBox="0 0 13 9" fill="none" xmlns="http://www.w3.org/2000/svg">
<path d="M0 6.43569C0 7.51791 0.709655 8.19652 1.73422 8.19652C2.31969 8.19652 2.84749 7.94371 3.24667 7.48687L4.03617 6.56875C4.14705 6.43569 4.26237 6.37803 4.39986 6.37803H8.60014C8.73763 6.37803 8.85295 6.43569 8.96384 6.56875L9.75333 7.48687C10.1525 7.94371 10.6803 8.19652 11.2658 8.19652C12.2903 8.19652 13 7.51791 13 6.43569C13 5.96998 12.898 5.44217 12.725 4.8567C12.45 3.93859 11.9754 2.70113 11.523 1.74753C11.1372 0.940294 10.9287 0.545548 9.95292 0.32378C9.0969 0.128625 7.92596 0 6.50222 0C5.07847 0 3.9031 0.128625 3.04708 0.32378C2.07574 0.545548 1.86285 0.940294 1.47697 1.74753C1.02457 2.70113 0.549983 3.93859 0.274991 4.8567C0.102013 5.44217 0 5.96998 0 6.43569ZM0.833845 6.42682C0.833845 6.15626 0.89594 5.83248 1.03344 5.36233C1.3306 4.33777 1.8451 3.01604 2.28864 2.04026C2.50154 1.57455 2.62573 1.31286 3.1491 1.18867C3.9652 0.997953 5.10508 0.869328 6.50222 0.869328C7.89492 0.869328 9.03924 0.997953 9.85534 1.18867C10.3787 1.31286 10.494 1.57455 10.7114 2.04026C11.1638 3.01604 11.6605 4.33777 11.971 5.36233C12.1085 5.83248 12.1662 6.15626 12.1662 6.42682C12.1662 6.99898 11.767 7.34937 11.2436 7.34937C10.9243 7.34937 10.6093 7.18083 10.3565 6.88809L9.46503 5.87683C9.2477 5.62402 9.07028 5.50427 8.68884 5.50427H4.31559C3.92972 5.50427 3.7523 5.62402 3.53497 5.87683L2.6479 6.88809C2.39509 7.18083 2.07574 7.34937 1.76083 7.34937C1.23303 7.34937 0.833845 6.99898 0.833845 6.42682ZM2.87854 3.23337C2.87854 3.48175 3.03378 3.63698 3.28216 3.63698H4.02729V4.35995C4.02729 4.60833 4.1781 4.768 4.42204 4.768C4.66155 4.768 4.81235 4.60833 4.81235 4.35995V3.63698H5.51314C5.78369 3.63698 5.9478 3.48175 5.9478 3.23337C5.9478 2.99386 5.78369 2.83862 5.51314 2.83862H4.81235V2.1201C4.81235 1.87172 4.66155 1.71204 4.42204 1.71204C4.1781 1.71204 4.02729 1.87172 4.02729 2.1201V2.83862H3.28216C3.03378 2.83862 2.87854 2.99386 2.87854 3.23337ZM9.26987 3.19345C9.64244 3.19345 9.92631 2.90959 9.92631 2.53702C9.92631 2.16445 9.64244 1.87615 9.26987 1.87615C8.90618 1.87615 8.61344 2.16445 8.61344 2.53702C8.61344 2.90959 8.90618 3.19345 9.26987 3.19345ZM7.95258 4.52405C8.32515 4.52405 8.60901 4.24019 8.60901 3.87206C8.60901 3.49949 8.32515 3.21119 7.95258 3.21119C7.58444 3.21119 7.29614 3.49949 7.29614 3.87206C7.29614 4.24019 7.58444 4.52405 7.95258 4.52405Z" fill="#00E194"/>
</svg>
