<svg width="28" height="28" viewBox="0 0 28 28" fill="none" xmlns="http://www.w3.org/2000/svg">
<path fill-rule="evenodd" clip-rule="evenodd" d="M11.5705 19.5567C11.8436 19.4813 12.2485 19.6179 12.4039 19.7497C12.5875 19.9051 12.6205 19.9569 12.7241 20.1546C12.79 20.2771 12.7476 20.2253 12.7759 20.3053C12.7994 20.3712 12.7947 20.3147 12.8135 20.3853C12.8606 20.5454 12.8041 20.8421 12.7618 20.9739C12.7382 21.0539 12.6629 21.1434 12.6158 21.214C12.5499 21.3082 12.4557 21.3976 12.3474 21.4683L11.9896 21.6331C11.8389 21.6707 11.6176 21.6472 11.4999 21.6142C11.3963 21.5813 11.4199 21.6095 11.3398 21.5577L11.3116 21.5389C11.1515 21.4494 11.1562 21.4589 11.0008 21.3176C10.9066 21.2281 10.7983 21.0257 10.7654 20.8939C10.7136 20.7055 10.6853 20.5125 10.756 20.3194C10.8219 20.1311 10.7748 20.1688 10.9255 19.9663C11.095 19.7309 11.288 19.632 11.5705 19.5567ZM6.95159 0.49707H7.48364C7.51189 0.553571 7.54955 0.515904 7.72847 0.61478C7.75202 0.628905 7.80381 0.661864 7.83206 0.680698L7.91681 0.746615C7.92152 0.751324 7.93093 0.756032 7.93564 0.760741C7.98744 0.803116 7.97331 0.803116 8.01098 0.854909C8.17577 1.10445 8.27465 1.15154 8.27465 1.49525C8.27465 1.7495 8.26052 2.42281 8.28406 2.58289C9.78133 2.60172 11.2833 2.56877 12.7759 2.58289C12.8041 2.58289 12.8748 2.5876 12.8983 2.58289C12.9642 2.57818 12.9501 2.59231 12.9642 2.5311C13.0019 2.3616 12.9454 1.49525 12.9736 1.34929L13.1478 0.934951C13.2938 0.741907 13.4727 0.600655 13.7034 0.544154C13.7741 0.525321 13.7552 0.544154 13.7741 0.49707H14.2684C14.2684 0.553571 14.3626 0.520612 14.518 0.605363L14.5509 0.624197C14.5509 0.624197 14.5557 0.628905 14.5604 0.628905C14.5604 0.628905 14.5651 0.633614 14.5698 0.638322C14.6357 0.675989 14.7299 0.737199 14.7817 0.798408C15.2431 1.35871 15.0171 1.7495 15.0736 2.57347C15.2148 2.60643 19.523 2.58289 19.8102 2.58289C19.8338 2.42281 19.8149 1.76363 19.8196 1.51408C19.8196 1.22687 19.9562 0.953785 20.1492 0.770157C20.2434 0.675989 20.4082 0.58653 20.5447 0.539446C20.6201 0.515904 20.5824 0.558279 20.6059 0.49707H21.1003C21.1239 0.558279 21.1615 0.506487 21.3452 0.600655C21.4111 0.633614 21.5194 0.699531 21.5759 0.746615C21.6371 0.793699 21.6889 0.873742 21.7407 0.934951C22.0797 1.33517 21.8678 2.11205 21.9384 2.58289C22.5364 2.58289 23.0967 2.57818 23.6899 2.59702L24.6646 2.79948C24.707 2.80889 24.7823 2.8701 24.8482 2.89365C24.9283 2.91719 24.9 2.89835 24.9612 2.93131L25.6345 3.29857L26.1148 3.69878C26.2654 3.84945 26.2937 3.81178 26.4161 3.98599C26.4632 4.05662 26.5997 4.18845 26.6845 4.31087C26.708 4.34854 26.7127 4.35796 26.741 4.39562C26.7692 4.42858 26.7787 4.43329 26.8022 4.47567C26.854 4.56983 26.8163 4.54629 26.9058 4.68284C26.9482 4.74875 26.9811 4.79584 27.0141 4.86646L27.1412 5.14897C27.1412 5.15368 27.1412 5.15838 27.1459 5.16309C27.1647 5.21018 27.16 5.22901 27.1836 5.27609C27.4472 5.88348 27.4284 6.37315 27.4661 6.47203V18.0076C27.4378 18.0876 27.4284 18.1818 27.3955 18.2666C27.2401 18.6527 26.8587 18.9163 26.4349 18.921C26.2278 18.921 26.0865 18.8881 25.917 18.7939L25.5686 18.4926C25.5027 18.4314 25.385 18.1583 25.3708 18.0547C25.352 17.8711 25.3661 17.598 25.3661 17.4096V11.5948C25.3661 10.9309 25.3991 7.03233 25.3332 6.4579C25.3096 6.29782 25.2861 6.18952 25.2343 6.04827C25.1919 5.93527 25.126 5.84581 25.0742 5.73752C24.9942 5.58685 24.9047 5.49739 24.8058 5.36085L24.4621 5.06422C24.3868 5.02184 24.3115 4.98417 24.2502 4.95121C24.2079 4.92767 24.1843 4.91826 24.1372 4.89001L23.7229 4.74405C23.7088 4.73934 23.6711 4.73934 23.6523 4.73463C23.4969 4.72521 23.3839 4.69225 23.2144 4.69225C22.9743 4.69225 22.1032 4.66871 21.929 4.70167C21.9196 5.09718 21.9431 5.49268 21.9243 5.88819C21.9196 5.98706 21.9008 5.97294 21.8819 6.04356L21.7595 6.31665C21.67 6.50028 21.3875 6.69332 21.1992 6.7357C21.1427 6.74982 21.1192 6.77337 21.0438 6.77807C20.8979 6.7922 20.7095 6.7922 20.5824 6.74982C20.4882 6.72157 20.4506 6.7357 20.3705 6.66507C20.3281 6.6227 20.3093 6.6227 20.2575 6.58974C20.1021 6.49086 19.9844 6.31665 19.9091 6.15656C19.7961 5.92114 19.8149 5.79873 19.8149 5.47856C19.8149 5.2243 19.8291 4.94651 19.8149 4.69225C19.5795 4.69225 15.1913 4.66871 15.0689 4.70638C15.0594 5.24784 15.1725 5.91644 14.8994 6.31194C14.7864 6.47674 14.6592 6.58503 14.485 6.6792C14.4803 6.68391 14.4756 6.68391 14.4756 6.68861C14.4709 6.68861 14.4662 6.68861 14.4615 6.69332L14.1978 6.77807C14.0189 6.7922 13.7128 6.77807 13.5857 6.70274C13.355 6.5709 13.1573 6.41553 13.0584 6.16127C12.9454 5.87406 12.9642 5.7846 12.9642 5.47856C12.9642 5.21959 12.9689 4.95592 12.9642 4.69696C12.6299 4.664 12.1261 4.69225 11.7777 4.69225C11.3445 4.69225 8.43473 4.66871 8.26994 4.70167C8.25581 5.09247 8.29348 5.49739 8.26523 5.88819C8.26052 5.97765 8.23698 5.97294 8.22286 6.04356C8.1334 6.4014 7.76614 6.72157 7.39889 6.77807C7.19172 6.81103 6.97042 6.77337 6.7915 6.69803C6.77738 6.69332 6.73971 6.6792 6.72088 6.66978L6.66438 6.63682C6.58433 6.58974 6.50429 6.53324 6.43837 6.46261L6.32066 6.2884C6.06641 5.89289 6.17941 5.23372 6.16529 4.70167C5.96282 4.664 5.21419 4.69225 4.92698 4.69225C4.77631 4.69225 4.72922 4.73934 4.57385 4.73934C4.47497 4.73934 4.45143 4.73463 4.37609 4.76759C4.24897 4.82409 4.14067 4.83351 4.05121 4.85705C3.97588 4.87588 3.80638 4.9983 3.72634 5.04067L3.56154 5.17722C3.50975 5.2243 3.49092 5.2243 3.44383 5.26197C3.33554 5.36085 3.23195 5.47856 3.1472 5.59627C3.11895 5.63393 3.09541 5.68102 3.07187 5.72339C3.04833 5.77048 3.0342 5.81756 3.00595 5.85994C2.88353 6.06711 2.78936 6.43436 2.78466 6.66507C2.77524 6.80162 2.77524 6.93345 2.77524 7.06999V22.6454C2.77524 22.8525 2.77053 23.427 2.85057 23.6059C2.89766 23.7048 2.88824 23.8036 3.01537 24.0485C3.05774 24.1285 3.12366 24.2509 3.17545 24.3121C3.20841 24.3545 3.24137 24.3875 3.27433 24.4204C3.312 24.4675 3.32141 24.4958 3.35908 24.5382C3.50975 24.7171 3.85817 24.9478 4.09359 25.0278L4.3243 25.0984C4.44201 25.1361 4.61151 25.1597 4.75277 25.1785C4.87989 25.1973 5.01644 25.1879 5.14827 25.1879H23.1956C23.3604 25.1879 23.431 25.1597 23.5675 25.1502C23.77 25.1408 23.883 25.0843 24.0619 25.0325L24.4574 24.8159C24.5422 24.7406 24.594 24.6982 24.6881 24.6276C24.7635 24.5711 24.8153 24.4817 24.8812 24.411C24.9942 24.2839 25.126 24.0814 25.1966 23.9166L25.2484 23.7471C25.3238 23.5635 25.3096 23.4317 25.3426 23.2292C25.3991 22.8855 25.3473 22.8855 25.5074 22.5842C25.5968 22.4147 25.7569 22.2593 25.9264 22.1698L26.2184 22.0568C26.5056 22.0003 26.7975 22.0851 27.0329 22.2499C27.08 22.2828 27.0941 22.3017 27.1459 22.3393C27.2354 22.4005 27.306 22.5371 27.3625 22.6313C27.4614 22.796 27.3907 22.7913 27.4661 22.8384V23.5776C27.4284 23.6341 27.4237 23.7095 27.419 23.7801C27.4049 23.9308 27.3248 24.2086 27.2777 24.3545C27.2354 24.4958 27.193 24.5758 27.1553 24.7265L27.0423 24.9713C27.0282 25.0043 27.0235 25.0043 27.0047 25.0467C26.8917 25.2821 26.7551 25.4422 26.6233 25.6305C26.482 25.833 26.0959 26.219 25.9076 26.3744C25.7852 26.478 25.3285 26.7793 25.1731 26.8406C24.98 26.9159 24.9565 26.963 24.6599 27.0619L23.6711 27.2784C23.6052 27.2784 23.511 27.269 23.4545 27.2879H4.6021C4.59268 27.2831 4.22072 27.2408 4.16892 27.2361C4.0418 27.2219 3.90525 27.1701 3.79696 27.1372C3.71692 27.1184 3.67454 27.1231 3.5945 27.0995C3.55683 27.0901 3.53329 27.0854 3.49562 27.076L2.91649 26.8264L2.21965 26.3744C2.15844 26.3226 2.16315 26.2991 2.0784 26.2426C1.92302 26.1343 1.6311 25.7953 1.50868 25.607L1.13672 25.0325C1.02842 24.8112 0.901296 24.5005 0.83067 24.2698C0.821253 24.2368 0.821253 24.218 0.807128 24.1756C0.778878 24.105 0.783586 24.0579 0.760044 23.9873C0.689418 23.7754 0.741211 23.5965 0.675293 23.5965V6.24602C0.727085 6.24132 0.71296 6.19894 0.717669 6.14244C0.731794 5.90231 0.835378 5.56802 0.92013 5.35143L1.13201 4.86646C1.21205 4.68284 1.40509 4.40975 1.5181 4.24966C1.67347 4.02837 2.01719 3.68466 2.21965 3.51515L2.46448 3.33623C2.73286 3.1479 2.79878 3.13377 3.10953 2.9784C3.22724 2.91719 3.17545 2.93131 3.30729 2.88894L3.60392 2.76652C3.66513 2.73356 3.66042 2.75239 3.72634 2.73356C3.79696 2.71473 3.75459 2.71002 3.81579 2.69589C3.8723 2.68177 3.89113 2.69118 3.94763 2.67235C4.05121 2.62997 4.06063 2.6441 4.18305 2.63468C4.27251 2.62527 4.36197 2.60172 4.42789 2.59231C4.56914 2.56877 5.92516 2.58289 6.15116 2.58289C6.1747 2.42751 6.15587 1.76363 6.16058 1.51408L6.19824 1.20333C6.20295 1.19862 6.20295 1.19862 6.20766 1.19391C6.25004 1.06679 6.22179 1.13741 6.30183 1.00558L6.66438 0.638322C6.91392 0.46882 6.91863 0.591238 6.95159 0.49707ZM7.04576 19.5567C7.30001 19.4955 7.56368 19.5567 7.77556 19.6979C7.77556 19.7026 7.78027 19.7073 7.78497 19.7073L7.86031 19.7638C8.07219 19.9192 8.11927 20.0322 8.1899 20.2158C8.29819 20.4983 8.27936 20.5831 8.21815 20.8986C8.17577 21.1151 7.94977 21.3929 7.76614 21.4965C7.50247 21.6425 7.44597 21.6472 7.13051 21.6425C6.91863 21.6378 6.99867 21.6237 6.92334 21.6001C6.81975 21.5672 6.92334 21.6237 6.76796 21.553C6.68792 21.5154 6.65967 21.5342 6.56079 21.44L6.2312 20.9927C6.21708 20.9504 6.21708 20.9127 6.20766 20.8703C6.19824 20.8279 6.18883 20.8185 6.18412 20.7808C6.10408 20.3948 6.31595 19.9333 6.51841 19.7968C6.74913 19.6367 6.72558 19.6273 7.04576 19.5567ZM15.2666 17.1695C15.2666 16.9765 15.2666 16.8352 15.309 16.6704C15.3184 16.6233 15.3184 16.5951 15.3278 16.548C15.3372 16.4821 15.3372 16.5197 15.3655 16.4538C15.389 16.3926 15.4079 16.322 15.4361 16.2561C15.5397 16.016 15.6386 15.9171 15.7469 15.7523C15.7657 15.724 15.7516 15.7382 15.7751 15.7146C15.7751 15.7099 15.7798 15.7052 15.7798 15.7052C15.9776 15.4839 16.2365 15.2814 16.5049 15.159C16.552 15.1402 16.6556 15.1025 16.7074 15.0931C16.8157 15.0743 16.9852 15.0084 17.1641 14.9989C17.9222 14.9613 19.0004 14.9848 19.7914 14.9848C20.0833 14.9848 20.4129 15.0507 20.6577 15.1543C20.7237 15.1826 20.8037 15.2391 20.8743 15.272C21.1097 15.385 21.025 15.3709 21.2322 15.5263C21.3499 15.611 21.4158 15.7193 21.5147 15.837C21.6135 15.9594 21.5806 15.9265 21.6559 16.0536L21.7501 16.2137C21.8019 16.3032 21.8678 16.5763 21.8819 16.6798C21.8913 16.7787 21.9196 16.8399 21.9243 16.967C21.9431 17.4096 21.929 17.8758 21.929 18.3231C21.929 18.9681 22.009 19.6367 21.8207 20.1829C21.816 20.197 21.8113 20.2017 21.8066 20.2206L21.7972 20.2441C21.7783 20.2912 21.7783 20.3288 21.7548 20.3712L21.6324 20.5878C21.6041 20.6396 21.6088 20.6537 21.5759 20.7008C21.4958 20.8185 21.3405 21.021 21.2369 21.1057L21.2086 21.1293C21.2039 21.134 21.1992 21.134 21.1992 21.1387C21.1945 21.1387 21.1898 21.1434 21.1898 21.1481L21.0768 21.2329C20.9402 21.3411 20.8508 21.3788 20.6483 21.4824C20.5777 21.5201 20.4694 21.5342 20.3894 21.5672C20.2669 21.6237 19.9609 21.6425 19.7914 21.6425H17.4184C17.1264 21.6425 16.9522 21.6142 16.7121 21.5342C16.4814 21.4589 16.5426 21.4683 16.3401 21.3647C16.2554 21.3223 16.0576 21.1999 15.9964 21.1387C15.9917 21.134 15.9917 21.1293 15.987 21.1293L15.8834 21.0304C15.7987 20.9598 15.6998 20.8138 15.6386 20.7291C15.6009 20.682 15.5585 20.6208 15.535 20.569C15.4455 20.3665 15.455 20.456 15.3655 20.1923C15.3514 20.1405 15.3702 20.1876 15.342 20.1452C15.309 20.084 15.276 19.8298 15.2713 19.7497C15.2572 18.9163 15.2666 18.0076 15.2666 17.1695ZM11.5282 15.0084C11.7777 14.8765 12.3615 15.0837 12.5687 15.3426L12.5875 15.3615C12.7194 15.5263 12.7382 15.6346 12.7994 15.7899C12.8606 15.95 12.823 16.322 12.7382 16.4727C12.6205 16.6704 12.5922 16.7505 12.3851 16.8964C12.3239 16.9388 12.2815 16.9482 12.2109 16.9953C12.1214 17.0612 12.1214 17.0188 12.0131 17.0565C11.6317 17.1789 11.1609 16.9718 10.9584 16.7222C10.7983 16.5245 10.7983 16.4067 10.7513 16.2796C10.61 15.8935 10.8784 15.3521 11.1609 15.1684C11.434 14.9942 11.4481 15.046 11.5282 15.0084ZM7.21526 14.9848C7.54955 14.9848 7.39418 14.9942 7.5731 15.0413C7.83206 15.1025 8.05335 15.3897 8.18048 15.6016C8.25111 15.7193 8.26994 15.8982 8.26994 16.0348C8.26994 16.2937 8.21815 16.3785 8.1334 16.5621C8.09102 16.6469 8.12869 16.628 8.06277 16.694L7.82264 16.9105C7.80381 16.9247 7.7991 16.9247 7.78027 16.9388L7.66256 17.0047C7.41772 17.1083 6.99396 17.1271 6.76796 17.0094L6.65025 16.9294C6.63613 16.92 6.61729 16.9058 6.60787 16.9011C6.32066 16.7175 6.16529 16.3691 6.16529 16.0348C6.16529 15.6393 6.37245 15.3003 6.69733 15.1119C6.72558 15.0978 6.74913 15.0884 6.77738 15.0743C6.89509 15.0084 7.07871 14.9848 7.21526 14.9848ZM20.6719 10.4459C20.7707 10.3988 21.0579 10.4318 21.1427 10.4647C21.1898 10.4789 21.2133 10.4789 21.2557 10.493L21.6465 10.7755C21.8443 10.9874 21.929 11.2322 21.929 11.5288C21.9243 11.6748 21.9008 11.7407 21.8678 11.8631C21.849 11.9291 21.7265 12.1362 21.67 12.188L21.4535 12.3622C21.2745 12.4941 21.0532 12.5364 20.8225 12.5364C20.5777 12.5317 20.4364 12.447 20.2434 12.3293C20.1021 12.2445 19.9468 12.0138 19.895 11.882C19.8714 11.8349 19.8808 11.8255 19.8667 11.769C19.8526 11.7125 19.8479 11.736 19.8338 11.6889C19.782 11.5147 19.8291 11.2511 19.8903 11.1004L20.0268 10.8508C20.1775 10.6625 20.1445 10.7284 20.234 10.6484L20.4694 10.4977C20.5259 10.4742 20.5965 10.4789 20.6719 10.4459ZM16.1565 10.4506C16.2365 10.4365 16.3213 10.4318 16.4202 10.4365C16.5332 10.4459 16.5238 10.4695 16.6226 10.4883C16.778 10.5118 16.9805 10.6437 17.0841 10.7614L17.1735 10.8744C17.2112 10.9215 17.1924 10.8932 17.2206 10.9497C17.3948 11.2699 17.4136 11.4676 17.3242 11.8114C17.2347 12.1645 16.8486 12.4847 16.4861 12.527C16.1848 12.5647 16.1094 12.4988 16.0105 12.4847C15.8599 12.4611 15.761 12.3811 15.6574 12.3057C15.4973 12.1833 15.4502 12.0986 15.3655 11.9385L15.3231 11.849C15.2666 11.5995 15.2619 11.8019 15.2713 11.3735L15.3467 11.0627L15.502 10.832C15.5538 10.7708 15.5585 10.7425 15.6292 10.6908C15.8599 10.5165 15.8693 10.5118 16.1565 10.4506ZM11.5658 10.4553C11.7165 10.3941 12.0696 10.4553 12.2438 10.5495C12.418 10.6484 12.5546 10.7331 12.6629 10.912C12.7382 11.0345 12.7712 11.1239 12.8135 11.284C12.8559 11.4582 12.8088 11.736 12.7618 11.8726C12.757 11.882 12.7241 11.9432 12.7147 11.962C12.6346 12.1221 12.5028 12.2775 12.3521 12.3717L11.9896 12.5364C11.8624 12.56 11.6082 12.5459 11.4999 12.5129C11.3539 12.4658 11.4528 12.5176 11.3021 12.4423C10.9961 12.2822 10.8219 12.0421 10.7324 11.7031C10.6383 11.3452 10.836 10.9215 11.0526 10.719C11.3116 10.4742 11.4246 10.5165 11.5658 10.4553ZM6.98455 10.4506C7.08342 10.4082 7.36593 10.4082 7.4648 10.4506C7.50718 10.4695 7.46009 10.4553 7.51189 10.4742C7.59664 10.5024 7.54955 10.46 7.66256 10.526C7.72376 10.5636 7.77085 10.5825 7.82264 10.6201C8.18519 10.8744 8.32644 11.3217 8.22756 11.7407C8.20402 11.8443 8.20873 11.8679 8.16165 11.9479C8.07219 12.1033 7.95918 12.2822 7.7991 12.3669L7.53072 12.4894C7.16817 12.6212 6.83388 12.4894 6.59375 12.3387C6.36775 12.1927 6.25004 11.9479 6.17941 11.7031C6.09466 11.4064 6.25004 10.912 6.49016 10.719L6.72088 10.5589C6.89038 10.46 6.83388 10.5071 6.98455 10.4506ZM17.3807 17.2072V19.4437V19.5284L19.8149 19.5331L19.8196 19.4578L19.8149 19.326V17.7816V17.0942H17.3807V17.2072Z" fill="#00E194"/>
</svg>
