<svg width="23" height="27" viewBox="0 0 23 27" fill="none" xmlns="http://www.w3.org/2000/svg">
<path d="M20.6353 9.45204C21.0509 9.45204 21.4416 9.29025 21.7354 8.99638C22.0294 8.70244 22.1912 8.31178 22.1912 7.89614C22.1912 7.4805 22.0294 7.08984 21.7354 6.79597L20.1953 5.25571C19.9014 4.96177 19.5107 4.79999 19.0951 4.79999C18.6794 4.79999 18.2888 4.96177 17.9949 5.25571C17.4371 5.81347 17.3926 6.69271 17.8606 7.30228L17.4942 7.64564C16.1851 6.59954 14.6169 5.86491 12.9023 5.55606V4.77311C14.135 4.72692 15.1238 3.71026 15.1238 2.46651C15.1238 1.19343 14.0881 0.157715 12.815 0.157715H9.3253C8.05222 0.157715 7.0165 1.19343 7.0165 2.46651C7.0165 3.71026 8.00524 4.72692 9.23793 4.77311V5.55606C7.5084 5.86766 5.92782 6.61249 4.61191 7.6732L4.29653 7.34553C4.80064 6.73499 4.76734 5.82685 4.19633 5.25571C3.90245 4.96177 3.51167 4.79999 3.09609 4.79999C2.68051 4.79999 2.28979 4.96177 1.99592 5.25571L0.455723 6.79597C0.161846 7.08984 0 7.4805 0 7.89614C0 8.31178 0.161846 8.70244 0.455723 8.99632C0.749599 9.29025 1.14038 9.45204 1.55596 9.45204C1.90757 9.45204 2.24122 9.33577 2.51365 9.12211L2.85732 9.47923C1.54325 11.2095 0.762124 13.3656 0.762124 15.701C0.762124 21.3848 5.38631 26.009 11.0702 26.009C16.754 26.009 21.3782 21.3848 21.3782 15.701C21.3782 13.3494 20.586 11.1796 19.2553 9.44318L19.6348 9.08753C19.9148 9.32337 20.265 9.45204 20.6353 9.45204ZM19.5452 15.7009C19.5452 20.374 15.7433 24.176 11.0702 24.176C6.39698 24.176 2.59503 20.374 2.59503 15.7009C2.59503 11.0277 6.39698 7.22578 11.0702 7.22578C15.7434 7.22585 19.5452 11.0277 19.5452 15.7009Z" fill="#00E194"/>
<path d="M11.0703 9.16602C7.4669 9.16602 4.53528 12.0976 4.53528 15.7011C4.53528 19.3045 7.4669 22.2361 11.0703 22.2361C14.6738 22.2361 17.6053 19.3045 17.6053 15.7011C17.6053 12.0976 14.6738 9.16602 11.0703 9.16602ZM14.5427 13.8784L12.3846 15.7683C12.3686 16.0827 12.2421 16.3926 12.0019 16.6327C11.4874 17.1472 10.6532 17.1472 10.1387 16.6327C9.62423 16.1181 9.62423 15.284 10.1387 14.7695C10.4234 14.4848 10.8058 14.3583 11.1779 14.3887L13.335 12.4995C13.7158 12.1661 14.2947 12.2044 14.6283 12.5851C14.9617 12.9659 14.9234 13.5449 14.5427 13.8784Z" fill="#00E194"/>
</svg>
