<svg width="19" height="19" viewBox="0 0 19 19" fill="none" xmlns="http://www.w3.org/2000/svg">
<g id="Group 1000001888">
<path id="Vector" d="M9.49922 5.25V11.2M9.49922 11.2L12.0492 8.65M9.49922 11.2L6.94922 8.65" stroke="#00E194" stroke-width="1.5" stroke-linecap="round" stroke-linejoin="round"/>
<path id="Vector_2" d="M12.8996 13.75H9.49961H6.09961" stroke="#00E194" stroke-width="1.5" stroke-linecap="round"/>
<path id="Vector_3" d="M1 9.5C1 5.49306 1 3.48959 2.2448 2.2448C3.48959 1 5.49306 1 9.5 1C13.5069 1 15.5104 1 16.7552 2.2448C18 3.48959 18 5.49306 18 9.5C18 13.5069 18 15.5104 16.7552 16.7552C15.5104 18 13.5069 18 9.5 18C5.49306 18 3.48959 18 2.2448 16.7552C1 15.5104 1 13.5069 1 9.5Z" stroke="#00E194" stroke-width="1.5"/>
</g>
</svg>
