<svg width="28" height="22" viewBox="0 0 28 22" fill="none" xmlns="http://www.w3.org/2000/svg">
<path fill-rule="evenodd" clip-rule="evenodd" d="M28 2.1514V2.9442C27.9475 2.9967 27.958 3.15421 27.9317 3.23822L27.7217 3.78425C27.6797 3.86826 27.6167 3.93126 27.5695 4.01002C27.2807 4.53505 26.6874 4.77131 26.3566 5.03383L20.5708 8.89282C20.4133 8.99783 20.2925 9.09233 20.1193 9.19734C19.8725 9.3496 19.5155 9.62262 19.2267 9.79063C19.1374 9.83788 19.1007 9.87988 19.0009 9.93764C18.6807 10.1371 18.2291 10.4679 17.9036 10.6779C17.7304 10.7882 17.5991 10.8722 17.4468 10.9772C17.3156 11.0717 17.1581 11.1872 17.0111 11.2765L16.5648 11.5757C16.4913 11.6177 16.402 11.6755 16.3285 11.7227C16.2498 11.7753 16.1868 11.812 16.1185 11.8645L15.6722 12.169C15.1577 12.4998 14.7534 12.7466 14.0184 12.7466C13.6036 12.7518 13.0786 12.6311 12.795 12.4578L12.1073 12.0168C11.808 11.791 11.346 11.5285 11.0047 11.2765C10.8629 11.1715 10.7054 11.0927 10.5479 10.9825C9.94412 10.5572 9.25108 10.1056 8.62629 9.71187L5.85937 7.848C5.79111 7.7955 5.69661 7.74825 5.62835 7.701L2.95593 5.91588C2.89293 5.87913 2.80368 5.81613 2.73542 5.76362L1.39134 4.87107C1.00806 4.6138 0.682543 4.39854 0.414776 4.00477C0.194262 3.67924 0.178511 3.53749 0.0682543 3.22247C0.031502 3.12796 0.047253 3.0282 0 2.9442V2.1199C0.0577536 2.08315 0.047253 2.07264 0.0787549 1.94664C0.115507 1.82588 0.147009 1.67887 0.204763 1.57911C0.304519 1.4006 0.252016 1.4006 0.47778 1.10133C0.724545 0.775814 1.04482 0.450293 1.43334 0.287533C1.50159 0.261282 1.5436 0.23503 1.6066 0.208778C1.73261 0.151025 1.87962 0.130023 2.00563 0.0880207C2.43615 -0.0484878 3.39696 0.0145161 3.93775 0.0145161H25.0913C25.4378 0.0145161 25.5954 -0.0064852 25.8631 0.0512684C26.0889 0.103772 25.8841 0.0302671 26.1991 0.140524C26.2464 0.161525 26.3409 0.182527 26.3934 0.203528C26.7189 0.345287 27.0602 0.586802 27.3017 0.823067C27.5485 1.06458 27.6482 1.32185 27.79 1.58436C27.8372 1.66837 27.8267 1.68412 27.8635 1.77338C27.9212 1.92564 27.9265 1.89413 27.9527 2.04639C27.9685 2.1409 27.9317 2.1199 28 2.1514ZM28 5.91588V18.8527C27.937 18.8999 27.9632 18.9524 27.937 19.0522C27.874 19.3095 27.6797 19.7347 27.5275 19.929C27.4855 19.9868 27.4645 20.0235 27.4172 20.076L27.0392 20.4488C26.8502 20.6063 26.8607 20.5853 26.6664 20.7113L26.5509 20.7691C26.5457 20.7743 26.5404 20.7743 26.5352 20.7796C26.4249 20.8373 26.0994 20.9581 25.9366 20.9791C25.9051 20.9843 25.9209 20.9791 25.8841 20.9896C25.6584 21.0526 25.3486 21.0263 25.1071 21.0263H2.37315C2.18939 21.0211 1.74836 20.9003 1.58035 20.8216C1.45959 20.7638 1.34408 20.7113 1.24958 20.6536C1.23383 20.6431 1.22333 20.6378 1.20233 20.6221L1.09207 20.559C1.03431 20.5118 1.01331 20.4908 0.945059 20.4435C0.845303 20.3753 0.897806 20.3805 0.819051 20.3175C0.766548 20.2755 0.745547 20.2598 0.693043 20.202C0.582786 20.0918 0.330771 19.761 0.273017 19.6087C0.246765 19.5405 0.225764 19.4985 0.194262 19.4355C0.168011 19.3882 0.136509 19.299 0.120758 19.2517C0.0997562 19.2045 0.105007 19.194 0.0892556 19.1415L0.0262516 18.9104C0.0105007 18.8737 0.0210013 18.8947 0 18.8684V5.92113C0.105007 5.92638 0.341271 6.1154 0.435777 6.1784C0.504032 6.22565 0.572286 6.26766 0.64579 6.30966L1.48584 6.87669C1.5226 6.90295 1.55935 6.9187 1.5961 6.94495L1.89537 7.15496C1.99512 7.21797 2.01088 7.23897 2.10538 7.30197L5.86462 9.80113C5.86462 9.80638 5.86987 9.81163 5.87512 9.81163C6.12713 9.98489 6.49991 10.2107 6.74667 10.3892L9.26683 12.064C9.49784 12.2268 9.89687 12.4683 10.1069 12.6311L11.4615 13.5289C11.5087 13.5604 11.5297 13.5814 11.5665 13.6076C11.7555 13.7494 12.1703 13.9384 12.3645 14.0381C12.3908 14.0486 12.4538 14.0854 12.48 14.0959C12.543 14.1221 12.5588 14.1116 12.627 14.1326C12.6743 14.1484 12.6848 14.1642 12.753 14.1799C13.2413 14.3164 13.4566 14.3532 14.0026 14.3532C14.1129 14.3532 14.2231 14.3532 14.3386 14.3479C14.6327 14.3374 14.4752 14.3427 14.6432 14.3007C14.7744 14.2692 14.8847 14.3112 15.226 14.1852C15.4517 14.1011 15.4885 14.1274 15.7352 13.9961C15.856 13.9279 15.9452 13.9226 16.2025 13.7494L18.3079 12.3528C18.4497 12.2583 18.5809 12.169 18.7174 12.0745L24.6188 8.14727C24.7658 8.05277 24.8866 7.95826 25.0283 7.86901L26.2884 7.02895C26.5982 6.82419 26.8659 6.66143 27.1337 6.46717C27.2125 6.41467 27.9107 5.92638 28 5.91588Z" fill="white"/>
</svg>
