<svg width="16" height="30" viewBox="0 0 16 30" fill="none" xmlns="http://www.w3.org/2000/svg">
<path fill-rule="evenodd" clip-rule="evenodd" d="M6.95897 1.29407C6.97219 1.36562 6.96792 1.31557 6.92395 1.31502C6.88405 1.3725 6.90425 1.35336 6.83702 1.41682L6.61261 1.60656C6.50241 1.70967 6.41684 1.817 6.28333 1.88238C6.26815 1.92137 6.29378 1.89901 6.2375 1.9578C6.17399 2.02413 6.20499 1.98815 6.16354 2.00373C6.15484 2.02513 5.69406 2.65912 5.59914 2.69881C5.58181 2.85016 5.32147 3.22667 5.23725 3.40877C5.15088 3.5955 5.03852 4.01849 4.90401 4.15512C4.90597 4.31204 4.80431 4.6064 4.7519 4.75162L4.61548 5.46766L4.5495 6.06662C4.51046 6.87628 4.5194 7.67241 4.5194 8.48282C4.5194 9.21861 4.56156 10.0877 4.51488 10.817L0 10.8174L0.0127129 16.0836L0.0531127 16.0655H0.770059H1.46967H2.15209H2.85171H3.53408H4.23369L4.51724 16.0675L4.518 29.5078L9.93373 29.5229L9.93509 16.0686L14.4216 16.0644C14.5815 15.6582 14.6389 13.7965 14.7838 13.6096C14.7662 13.4466 14.7922 13.26 14.8299 13.1124C14.8453 12.9251 14.8634 12.4832 14.9519 12.3603C14.9258 12.1844 14.9695 11.9662 15.001 11.7995L15.1036 11.0028L15.1361 10.8198L9.94811 10.8143C9.8965 10.4841 9.91891 7.0627 9.98072 6.98295L9.96836 6.89336C10.0293 6.3251 10.2112 5.82161 10.5112 5.5053C10.8142 5.18592 11.281 5.01829 11.8606 4.94874C12.0259 4.93367 12.1586 4.9092 12.3294 4.93879C12.452 4.85855 14.9197 4.91156 15.2995 4.91156L15.2948 0.228042C13.1974 0.0239328 10.5744 -0.250675 8.56748 0.454111C7.62738 0.784243 7.39794 1.09001 6.95902 1.29412L6.95897 1.29407Z" fill="white"/>
</svg>
