<svg width="20" height="35" viewBox="0 0 20 35" fill="none" xmlns="http://www.w3.org/2000/svg">
<path d="M18.9609 23.947L18.9101 23.501C18.9102 23.501 18.9102 23.501 18.9102 23.501C18.9191 23.5 18.9284 23.4991 18.935 23.4985L18.9565 23.4965L18.9639 23.4959L18.9718 23.4947L18.9763 23.4936L18.9876 23.4913L18.9891 23.491L18.9891 23.491C18.9886 23.4911 18.9881 23.4912 18.9876 23.4913M18.9876 23.4913L19.0554 23.8337L19.0292 23.7634L18.9865 23.4923L18.9764 23.4939C18.9798 23.4931 18.9826 23.4924 18.9845 23.492C18.9854 23.4918 18.9866 23.4916 18.9876 23.4913ZM12.8668 0.930651C12.8713 0.889811 12.8711 0.854955 12.8709 0.821135C12.8707 0.776195 12.8704 0.733084 12.8812 0.680191L12.9309 0.937672L12.9708 1.14422C12.9587 1.14655 12.9509 1.14745 12.9509 1.1475C12.9509 1.14756 12.9598 1.14667 12.9822 1.14553C13.0137 1.14394 13.058 1.14244 13.1153 1.14114C13.1724 1.13985 13.2398 1.13881 13.3158 1.13802C13.1013 2.50411 12.0656 3.58684 10.692 3.81546L10.6213 3.39037L10.692 3.81546C8.93338 4.10815 7.33274 2.95691 7.01412 1.18283L7.01409 1.1827C7.01032 1.16169 7.00704 1.14143 7.00417 1.12192C6.87525 1.12233 6.73018 1.12176 6.58435 1.1207C6.34964 1.11901 6.12005 1.11618 5.94173 1.11398C5.81253 1.11239 5.71024 1.11113 5.65241 1.11087C5.44342 1.10994 5.24025 1.1076 5.03971 1.10529C4.66022 1.10091 4.29014 1.09665 3.90776 1.10224L3.9077 1.10224C3.68771 1.10542 3.37178 1.15881 3.12411 1.21826L3.12411 1.21826C2.26303 1.42497 1.69441 2.07033 1.57135 2.86117L1.41558 22.1359C1.41558 22.1362 1.41558 22.1365 1.41558 22.1368C1.41534 22.1934 1.41567 22.2932 1.41608 22.4193C1.41667 22.5957 1.41743 22.8236 1.41701 23.057C1.41674 23.2084 1.41596 23.3589 1.41425 23.4911C1.44236 23.4977 1.47139 23.5053 1.5011 23.514C1.73333 23.5824 1.96285 23.7094 2.20968 23.9472L1.88173 24.2875L2.20969 23.9472C2.90253 24.6149 2.96182 25.7989 2.21276 26.5413C1.97582 26.7761 1.75307 26.9044 1.52129 26.9746C1.4804 26.9869 1.44067 26.9971 1.40268 27.0055L1.37443 31.3475C1.37443 31.3476 1.37443 31.3478 1.37443 31.348C1.37163 31.9777 1.39031 32.4191 1.68526 32.8875C1.79809 33.0666 1.83776 33.103 1.9905 33.243C2.01928 33.2693 2.05207 33.2994 2.09011 33.3348L1.78367 33.6643L2.09013 33.3348C2.33159 33.5593 2.74375 33.7212 3.04884 33.7926C3.04885 33.7926 3.04886 33.7926 3.04887 33.7926L2.94126 34.2528C3.40188 34.3604 3.60058 34.3592 4.01566 34.3568C4.05069 34.3565 4.08727 34.3563 4.12567 34.3562L12.8668 0.930651ZM18.7095 2.97739C18.7733 3.30081 18.7749 3.65069 18.7635 4.04442C18.7617 4.10643 18.7596 4.17 18.7574 4.23479C18.7466 4.5505 18.7349 4.89506 18.7594 5.22847C18.747 5.38365 18.7496 5.55802 18.7516 5.69319C18.7524 5.74617 18.7531 5.79313 18.7527 5.83055L18.7527 5.83162L18.6956 14.5998L18.6956 14.5999L18.6929 14.9926C18.6833 16.4279 18.6737 17.8429 18.6609 19.2815C18.6558 19.8558 18.6545 20.4244 18.6532 20.9906C18.6512 21.8464 18.6493 22.6966 18.6342 23.5524C17.2984 23.9035 16.7861 25.6004 17.8001 26.6188C18.0448 26.8645 18.2793 26.9959 18.5134 27.0659C18.5497 27.0768 18.585 27.0859 18.6189 27.0935C18.6189 27.1261 18.6188 27.1603 18.6187 27.1962C18.6178 27.4127 18.6143 27.6768 18.6105 27.9519C18.6099 28.0005 18.6092 28.0495 18.6086 28.0987C18.6042 28.4235 18.6003 28.7542 18.6013 29.022C18.6018 29.1557 18.6036 29.2774 18.6073 29.3769C18.6095 29.4358 18.6129 29.5049 18.6203 29.5688L18.6198 29.5753L18.6197 29.5937L18.6174 30.0948L18.6173 30.1333L18.6173 30.134C18.5921 30.2757 18.5873 30.4379 18.5865 30.5822C18.5858 30.7073 18.5886 30.85 18.5914 30.9942C18.5926 31.0546 18.5938 31.1153 18.5947 31.1751C18.6014 31.6034 18.5957 32.022 18.5234 32.3438C18.3642 33.0534 17.8492 33.556 17.0796 33.7989L17.2062 34.2L17.0796 33.7989C16.7392 33.9063 16.3971 33.9352 16.0859 33.9337L14.9489 33.9286C14.9237 33.9285 14.8479 33.9292 14.7408 33.9303C14.508 33.9326 14.1269 33.9363 13.7942 33.9359C13.561 33.9356 13.3332 33.9335 13.1481 33.9281C13.0616 33.1687 12.6284 32.4195 11.9947 31.9022C11.2103 31.2619 10.0892 30.9494 8.84911 31.379L18.7095 2.97739Z" stroke="#00E194" stroke-width="0.945221"/>
</svg>
