<svg width="54" height="12" viewBox="0 0 54 12" fill="none" xmlns="http://www.w3.org/2000/svg">
<path d="M1 5.25C0.585786 5.25 0.25 5.58579 0.25 6C0.25 6.41421 0.585786 6.75 1 6.75V5.25ZM53.5303 6.53033C53.8232 6.23744 53.8232 5.76256 53.5303 5.46967L48.7574 0.696699C48.4645 0.403806 47.9896 0.403806 47.6967 0.696699C47.4038 0.989593 47.4038 1.46447 47.6967 1.75736L51.9393 6L47.6967 10.2426C47.4038 10.5355 47.4038 11.0104 47.6967 11.3033C47.9896 11.5962 48.4645 11.5962 48.7574 11.3033L53.5303 6.53033ZM1 6.75H53V5.25H1V6.75Z" fill="#00E194"/>
</svg>
