<svg width="29" height="28" viewBox="0 0 29 28" fill="none" xmlns="http://www.w3.org/2000/svg">
<path d="M26.2184 0.827148H2.84851C1.42311 0.827148 0.267578 1.91602 0.267578 3.25918V25.2807C0.267578 26.624 1.42311 27.7128 2.84851 27.7128H26.2183C27.6438 27.7128 28.7993 26.624 28.7993 25.2807V3.25918C28.7993 1.91602 27.6438 0.827148 26.2184 0.827148ZM9.09651 24.042C9.09651 24.4329 8.76026 24.7498 8.34543 24.7498H5.14823C4.7334 24.7498 4.39714 24.4329 4.39714 24.042V11.4127C4.39714 11.0218 4.7334 10.705 5.14823 10.705H8.34543C8.76026 10.705 9.09651 11.0218 9.09651 11.4127V24.042ZM6.74683 9.51446C5.06935 9.51446 3.70946 8.23303 3.70946 6.65233C3.70946 5.07164 5.06935 3.7902 6.74683 3.7902C8.4243 3.7902 9.78419 5.07164 9.78419 6.65233C9.78419 8.23303 8.42437 9.51446 6.74683 9.51446ZM25.805 24.099C25.805 24.4584 25.4958 24.7498 25.1144 24.7498H21.6836C21.3022 24.7498 20.993 24.4584 20.993 24.099V18.1752C20.993 17.2915 21.2681 14.3027 18.5422 14.3027C16.4278 14.3027 15.9989 16.3484 15.9128 17.2665V24.099C15.9128 24.4584 15.6036 24.7498 15.2222 24.7498H11.904C11.5226 24.7498 11.2134 24.4584 11.2134 24.099V11.3557C11.2134 10.9963 11.5226 10.705 11.904 10.705H15.2222C15.6035 10.705 15.9128 10.9963 15.9128 11.3557V12.4575C16.6968 11.3488 17.862 10.493 20.3428 10.493C25.8364 10.493 25.805 15.3294 25.805 17.9867V24.099Z" fill="white"/>
</svg>
