<svg width="11" height="12" viewBox="0 0 11 12" fill="none" xmlns="http://www.w3.org/2000/svg">
<path fill-rule="evenodd" clip-rule="evenodd" d="M8.66741 0H8.79023C8.80438 0.00552549 8.86364 0.00628394 8.88479 0.00846567C9.18064 0.0390811 9.46185 0.150516 9.69506 0.326348C9.74458 0.363674 9.81584 0.423767 9.86099 0.468149C10.0157 0.620289 10.1512 0.826843 10.2289 1.0261C10.2814 1.16064 10.3732 1.50204 10.4186 1.6598C10.4798 1.8724 10.5402 2.08471 10.6014 2.2975C10.638 2.4246 10.6274 2.52626 10.5733 2.63656C10.5316 2.72147 10.4521 2.79856 10.3615 2.83787C10.2984 2.86526 9.80348 3.0026 9.72543 3.02506L7.16793 3.75816C6.95415 3.81904 6.74107 3.87865 6.528 3.94152C6.31675 4.00384 6.10162 4.0621 5.89024 4.12442C5.46598 4.24952 5.03636 4.36716 4.61054 4.49144C4.50447 4.52239 4.39765 4.55263 4.29163 4.5827C4.21831 4.60351 4.03238 4.65384 3.97272 4.67547C4.12673 4.67852 4.28389 4.67562 4.43826 4.67562L10.4927 4.67632C10.5743 4.67632 10.6283 4.67512 10.7018 4.70034C10.8545 4.75271 10.9678 4.8861 10.9943 5.04807C10.9969 5.06374 10.9948 5.0868 11 5.10048V10.1942C10.9965 10.2053 10.995 10.2676 10.9933 10.2862C10.974 10.4914 10.9283 10.6413 10.8457 10.829C10.8095 10.9112 10.7498 11.0069 10.699 11.0787C10.652 11.145 10.5775 11.2358 10.5182 11.2917C10.5091 11.3003 10.5008 11.3069 10.4921 11.3155C10.4873 11.3201 10.4852 11.3238 10.4803 11.3286C10.4765 11.3324 10.4715 11.3362 10.4668 11.3401L10.4137 11.3867C10.3583 11.4351 10.2399 11.5156 10.1812 11.5479C9.94232 11.6794 9.70232 11.7522 9.4281 11.7594L9.40945 11.7616C9.40898 11.7609 9.40782 11.762 9.40705 11.7624H1.93947C1.9308 11.7587 1.87899 11.757 1.86625 11.756C1.71692 11.7445 1.55853 11.7096 1.42215 11.657C1.26701 11.5971 1.13403 11.522 1.01999 11.4355C0.958566 11.3889 0.904022 11.3416 0.853451 11.2915C0.800567 11.239 0.754276 11.1854 0.707772 11.1266C0.517249 10.8857 0.383345 10.5405 0.373883 10.2154C0.367919 10.0104 0.371476 9.80051 0.371476 9.59451V5.23942C0.371476 5.16601 0.371026 5.17813 0.349801 5.10586C0.267274 4.82485 0.189088 4.53994 0.106976 4.25911C0.0588236 4.09443 0.0247224 3.9853 0.00773096 3.81533L0.000794344 3.74313C0.000616485 3.74247 0.000332004 3.74149 0 3.74072V3.58754C0.00332004 3.57901 0.014418 3.44132 0.0185681 3.41436C0.027046 3.35925 0.0377889 3.30796 0.0510453 3.25556C0.124786 2.96422 0.292353 2.67706 0.512222 2.47492C0.516621 2.47086 0.51968 2.46875 0.523925 2.46439C0.530494 2.45762 0.529664 2.45721 0.536185 2.45186C0.541426 2.44757 0.545043 2.44531 0.550284 2.44082C0.640352 2.36388 0.73687 2.28938 0.844771 2.23366C0.867181 2.2221 0.88754 2.21251 0.908776 2.20061C1.0386 2.12793 1.34171 2.05057 1.48525 2.00919C2.27834 1.78062 3.07186 1.55483 3.86593 1.32663C4.26243 1.21267 4.65841 1.09815 5.0551 0.985493C5.8494 0.759909 6.64439 0.526545 7.43796 0.302372L8.18118 0.089226C8.23019 0.0750921 8.28163 0.058966 8.3308 0.0475119C8.41621 0.0276035 8.48884 0.0139561 8.57718 0.00632002C8.59517 0.00476672 8.65645 0.00326075 8.66741 0ZM1.33723 5.51438L1.33757 9.99647C1.33757 10.1944 1.33044 10.3144 1.43947 10.4891C1.48138 10.5563 1.52557 10.6019 1.58019 10.6478C1.7091 10.7563 1.8593 10.7952 2.032 10.7952H9.2064C9.43328 10.7952 9.53499 10.803 9.71281 10.7025C9.83486 10.6336 9.9355 10.5111 9.98813 10.379C10.0189 10.3018 10.0337 10.222 10.0342 10.1295V5.94078C10.0342 5.84502 10.0389 5.73701 10.0339 5.64277L3.96732 5.64156L3.84863 4.795C3.83378 4.79337 1.7401 5.39896 1.4931 5.46834L1.33723 5.51438ZM2.49756 4.1749C2.5341 4.16794 2.58049 4.15186 2.61671 4.14149C2.80115 4.08878 4.09332 3.72 4.10015 3.71487L4.34737 3.2718C4.38279 3.20566 4.41977 3.14036 4.45698 3.07369C4.53073 2.94156 4.60125 2.81045 4.67524 2.67923L4.83867 2.38533C4.86795 2.33344 5.09955 1.91842 5.11121 1.89167C5.08673 1.8956 4.91525 1.94718 4.87501 1.95868L3.68575 2.29967C3.64539 2.31123 3.60687 2.32204 3.56731 2.33365C3.49 2.35634 3.51715 2.33791 3.48078 2.39961L3.37113 2.59771C3.29869 2.73021 3.22586 2.85885 3.15247 2.99162C3.08134 3.12031 3.00193 3.25877 2.93412 3.38601C2.89835 3.45309 2.86159 3.51594 2.82521 3.58197C2.75526 3.70894 2.67833 3.85176 2.60695 3.97643C2.58835 4.00893 2.56977 4.04157 2.55247 4.07441L2.49756 4.1749ZM5.30753 3.36908C5.33617 3.36399 5.50353 3.31358 5.54671 3.30128L6.85219 2.92685C6.92466 2.90545 6.9031 2.92009 6.9376 2.85971C6.97506 2.79414 7.01097 2.72776 7.04726 2.6616C7.11981 2.52936 7.19128 2.40165 7.26503 2.26959L7.92028 1.08618C7.88666 1.09162 7.83499 1.10991 7.80071 1.11968C7.76131 1.1309 7.72209 1.14232 7.68213 1.15362C7.4443 1.22087 7.20675 1.29177 6.96904 1.35817L6.37664 1.52809C6.36694 1.53089 6.32509 1.54158 6.31912 1.54537C6.31105 1.5505 6.05404 2.02118 6.01713 2.08612L5.85422 2.38071C5.8017 2.47628 5.74132 2.57989 5.68998 2.67662C5.67278 2.70904 5.65401 2.74288 5.63556 2.77459C5.58386 2.86342 5.52367 2.97719 5.4716 3.07091L5.33502 3.31682C5.32749 3.33112 5.3124 3.35377 5.30753 3.36908ZM1.11789 4.57062C1.16117 4.56268 1.21947 4.54208 1.26381 4.52943C1.28689 4.52284 1.28918 4.52528 1.29607 4.51449L1.68858 3.80653C1.71065 3.76588 1.73281 3.72389 1.75678 3.68348L1.89307 3.43717C1.93755 3.35496 1.98484 3.2744 2.0297 3.19131C2.05162 3.15073 2.07372 3.10921 2.09792 3.06821C2.14121 2.99486 2.19046 2.8971 2.23412 2.82177L2.30262 2.69716C2.27649 2.70157 2.24317 2.71341 2.2165 2.72104L1.61751 2.89276C1.50981 2.92318 1.38145 2.95337 1.28813 3.00132C1.19361 3.04989 1.10874 3.11858 1.04594 3.19992C0.905373 3.382 0.842316 3.60819 0.921298 3.88554L1.06854 4.39819C1.08468 4.45409 1.1046 4.51512 1.11789 4.57062ZM8.11623 2.56393L9.63064 2.13035C9.62769 2.10912 9.53954 1.80839 9.53122 1.77934C9.49788 1.66316 9.46418 1.54645 9.43124 1.43015C9.41364 1.36804 9.39366 1.32213 9.36683 1.27C9.32246 1.18378 9.26126 1.1157 9.18996 1.05594C9.15187 1.02401 9.05816 0.959454 9.01131 0.947561L8.95678 1.04774C8.93739 1.08105 8.9194 1.11547 8.90035 1.14932C8.86263 1.21633 8.82762 1.28367 8.78848 1.35066C8.7495 1.41738 8.71527 1.48573 8.67666 1.55212C8.63764 1.61918 8.60203 1.687 8.56386 1.75537L8.11623 2.56393Z" fill="#00E194"/>
</svg>
