<svg width="28" height="29" viewBox="0 0 28 29" fill="none" xmlns="http://www.w3.org/2000/svg">
<path fill-rule="evenodd" clip-rule="evenodd" d="M0 6.1817C0 6.94275 0.16694 7.90021 0.348611 8.51887C0.559741 9.23573 0.746321 9.87894 1.02619 10.5222C1.16367 10.8413 1.30115 11.1064 1.43372 11.4305L2.38626 13.2128C3.71197 15.4174 4.05567 15.7366 5.47466 17.568L7.07532 19.3602C7.51723 19.8021 7.67926 20.0378 8.08679 20.3765C8.35684 20.6024 8.76928 21.1032 9.10316 21.3831C10.9591 22.9347 11.5385 23.5288 13.6498 24.933C14.3372 25.3897 15.9281 26.352 16.6449 26.6466C16.8462 26.7252 16.9592 26.7939 17.131 26.8725C18.3291 27.4028 19.8855 27.9527 21.3782 28.0214H21.9625C22.8856 27.9772 23.7644 27.7121 24.4813 27.1082C25.0558 26.627 27.1425 24.555 27.3586 24.2358C27.5746 23.9068 27.7661 23.6761 27.8839 23.2293C28.0067 22.7432 28.0362 22.4142 27.9527 21.9036C27.8005 20.9805 27.3095 20.5975 26.7497 20.0427C26.0918 19.3847 23.4355 16.6253 22.8708 16.262C21.7464 15.5402 20.1752 15.8201 19.3651 16.9003C18.9723 17.4305 19.0165 18.0737 18.2112 18.7562C16.095 20.5533 12.8397 17.789 11.3421 16.2963C11.2145 16.1638 11.0819 16.0508 10.9641 15.9084L10.6105 15.496C9.82493 14.5287 8.59252 12.7022 8.59252 11.3814C8.59252 10.1588 9.3683 9.43213 10.365 8.99514C10.9788 8.72018 11.1752 8.62689 11.5876 8.13589C12.2161 7.40429 12.3143 6.16206 11.8429 5.28808C11.6367 4.9051 11.3912 4.67924 11.0966 4.38955L7.84129 1.13421C6.95257 0.24059 6.50085 0 5.1997 0C4.60068 0 4.09495 0.368251 3.73161 0.662851C3.56467 0.795422 3.51066 0.839612 3.35354 0.996732C2.86745 1.48773 2.41572 1.93454 1.92963 2.42063C0.780692 3.56958 0 4.29135 0 6.1817Z" fill="white"/>
</svg>
