<svg width="18" height="18" viewBox="0 0 18 18" fill="none" xmlns="http://www.w3.org/2000/svg">
<path fill-rule="evenodd" clip-rule="evenodd" d="M7.32021 12.8056C7.50369 12.755 7.77575 12.8467 7.88014 12.9353C8.00352 13.0397 8.02566 13.0745 8.09525 13.2074C8.13954 13.2896 8.11107 13.2548 8.13005 13.3086C8.14587 13.3529 8.14271 13.3149 8.15536 13.3624C8.18699 13.4699 8.14903 13.6692 8.12056 13.7578C8.10474 13.8116 8.05413 13.8717 8.0225 13.9192C7.97821 13.9824 7.91494 14.0425 7.84218 14.09L7.60176 14.2007C7.50053 14.226 7.35185 14.2102 7.27276 14.188C7.20316 14.1659 7.21898 14.1849 7.1652 14.1501L7.14622 14.1374C7.03866 14.0773 7.04183 14.0837 6.93743 13.9888C6.87417 13.9286 6.80141 13.7926 6.77926 13.704C6.74446 13.5775 6.72548 13.4478 6.77293 13.3181C6.81722 13.1916 6.78559 13.2169 6.88682 13.0808C7.0007 12.9227 7.1304 12.8562 7.32021 12.8056ZM4.21687 0H4.57434C4.59332 0.0379613 4.61863 0.0126538 4.73884 0.0790861C4.75466 0.0885765 4.78945 0.110721 4.80844 0.123374L4.86538 0.167663C4.86854 0.170826 4.87487 0.173989 4.87803 0.177153C4.91283 0.205624 4.90334 0.205624 4.92865 0.240422C5.03937 0.408084 5.1058 0.439719 5.1058 0.67065C5.1058 0.841476 5.09631 1.29385 5.11213 1.40141C6.1181 1.41406 7.12724 1.39192 8.13005 1.40141C8.14903 1.40141 8.19648 1.40457 8.2123 1.40141C8.25659 1.39824 8.2471 1.40773 8.25659 1.36661C8.2819 1.25272 8.24394 0.67065 8.26292 0.572583L8.37996 0.2942C8.47803 0.164499 8.59824 0.0695958 8.75325 0.0316344C8.8007 0.0189807 8.78805 0.0316344 8.8007 0H9.13286C9.13286 0.0379613 9.19613 0.0158172 9.30053 0.0727592L9.32267 0.085413C9.32267 0.085413 9.32583 0.0885765 9.329 0.0885765C9.329 0.0885765 9.33216 0.0917399 9.33533 0.0949033C9.37961 0.120211 9.44288 0.161336 9.47768 0.20246C9.7877 0.57891 9.63585 0.841476 9.67381 1.39508C9.76872 1.41722 12.6633 1.40141 12.8562 1.40141C12.8721 1.29385 12.8594 0.850967 12.8626 0.683304C12.8626 0.490334 12.9543 0.306854 13.084 0.18348C13.1473 0.120211 13.258 0.0601054 13.3497 0.028471C13.4004 0.0126538 13.375 0.0411248 13.3909 0H13.723C13.7388 0.0411248 13.7641 0.00632689 13.8875 0.0695958C13.9318 0.0917399 14.0046 0.136028 14.0425 0.167663C14.0837 0.199297 14.1185 0.253076 14.1533 0.2942C14.381 0.563093 14.2387 1.08506 14.2861 1.40141C14.6879 1.40141 15.0643 1.39824 15.4629 1.4109L16.1178 1.54692C16.1462 1.55325 16.1968 1.59438 16.2411 1.61019C16.2949 1.62601 16.2759 1.61336 16.317 1.6355L16.7694 1.88225L17.0921 2.15114C17.1933 2.25237 17.2123 2.22707 17.2946 2.34411C17.3262 2.39156 17.4179 2.48014 17.4749 2.56239C17.4907 2.5877 17.4938 2.59402 17.5128 2.61933C17.5318 2.64148 17.5381 2.64464 17.554 2.67311C17.5888 2.73638 17.5634 2.72056 17.6236 2.8123C17.652 2.85659 17.6742 2.88822 17.6963 2.93568L17.7817 3.12548C17.7817 3.12865 17.7817 3.13181 17.7849 3.13497C17.7975 3.16661 17.7944 3.17926 17.8102 3.2109C17.9873 3.61898 17.9747 3.94798 18 4.01441V11.7649C17.981 11.8186 17.9747 11.8819 17.9525 11.9388C17.8482 12.1982 17.5919 12.3754 17.3072 12.3786C17.168 12.3786 17.0731 12.3564 16.9592 12.2931L16.7251 12.0907C16.6808 12.0496 16.6018 11.8661 16.5923 11.7965C16.5796 11.6731 16.5891 11.4896 16.5891 11.3631V7.45624C16.5891 7.01019 16.6112 4.39086 16.567 4.00492C16.5511 3.89736 16.5353 3.8246 16.5005 3.7297C16.4721 3.65378 16.4278 3.59367 16.393 3.52091C16.3392 3.41968 16.2791 3.35958 16.2127 3.26784L15.9817 3.06854C15.9311 3.04007 15.8805 3.01476 15.8394 2.99262C15.8109 2.9768 15.7951 2.97047 15.7634 2.95149L15.4851 2.85343C15.4756 2.85026 15.4503 2.85026 15.4376 2.8471C15.3332 2.84077 15.2573 2.81863 15.1434 2.81863C14.9821 2.81863 14.3968 2.80281 14.2798 2.82496C14.2735 3.09069 14.2893 3.35641 14.2766 3.62214C14.2735 3.68858 14.2608 3.67909 14.2482 3.72654L14.1659 3.91002C14.1058 4.03339 13.916 4.16309 13.7895 4.19156C13.7515 4.20105 13.7357 4.21687 13.6851 4.22004C13.587 4.22953 13.4605 4.22953 13.375 4.20105C13.3118 4.18207 13.2865 4.19156 13.2327 4.14411C13.2042 4.11564 13.1916 4.11564 13.1568 4.0935C13.0524 4.02706 12.9733 3.91002 12.9227 3.80246C12.8467 3.64429 12.8594 3.56204 12.8594 3.34692C12.8594 3.1761 12.8689 2.98946 12.8594 2.81863C12.7012 2.81863 9.7529 2.80281 9.67065 2.82812C9.66432 3.19192 9.74025 3.64112 9.55677 3.90685C9.48084 4.01757 9.39543 4.09033 9.27838 4.1536C9.27522 4.15677 9.27206 4.15677 9.27206 4.15993C9.26889 4.15993 9.26573 4.15993 9.26257 4.16309L9.08541 4.22004C8.9652 4.22953 8.75958 4.22004 8.67416 4.16942C8.51916 4.08084 8.38629 3.97645 8.31986 3.80562C8.24394 3.61265 8.25659 3.55255 8.25659 3.34692C8.25659 3.17294 8.25975 2.99578 8.25659 2.82179C8.03199 2.79965 7.6935 2.81863 7.4594 2.81863C7.16837 2.81863 5.21336 2.80281 5.10264 2.82496C5.09315 3.08752 5.11845 3.35958 5.09947 3.62214C5.09631 3.68225 5.08049 3.67909 5.071 3.72654C5.0109 3.96696 4.76415 4.18207 4.5174 4.22004C4.37821 4.24218 4.22953 4.21687 4.10931 4.16626C4.09982 4.16309 4.07452 4.1536 4.06186 4.14728L4.0239 4.12513C3.97012 4.0935 3.91634 4.05554 3.87206 4.00808L3.79297 3.89104C3.62214 3.62531 3.69807 3.18243 3.68858 2.82496C3.55255 2.79965 3.04956 2.81863 2.85659 2.81863C2.75536 2.81863 2.72373 2.85026 2.61933 2.85026C2.5529 2.85026 2.53708 2.8471 2.48647 2.86924C2.40105 2.90721 2.3283 2.91353 2.26819 2.92935C2.21757 2.942 2.10369 3.02425 2.04991 3.05272L1.93919 3.14446C1.90439 3.1761 1.89174 3.1761 1.86011 3.20141C1.78735 3.26784 1.71775 3.34692 1.66081 3.42601C1.64183 3.45132 1.62601 3.48295 1.61019 3.51142C1.59438 3.54306 1.58489 3.57469 1.56591 3.60316C1.48366 3.74235 1.42039 3.9891 1.41722 4.14411C1.4109 4.23585 1.4109 4.32443 1.4109 4.41617V14.8808C1.4109 15.02 1.40773 15.406 1.46151 15.5262C1.49315 15.5926 1.48682 15.6591 1.57223 15.8236C1.6007 15.8773 1.64499 15.9596 1.67979 16.0007C1.70193 16.0292 1.72408 16.0513 1.74622 16.0735C1.77153 16.1051 1.77786 16.1241 1.80316 16.1525C1.90439 16.2728 2.13849 16.4278 2.29666 16.4815L2.45167 16.529C2.53076 16.5543 2.64464 16.5701 2.73954 16.5828C2.82496 16.5954 2.9167 16.5891 3.00527 16.5891H15.1308C15.2415 16.5891 15.2889 16.5701 15.3807 16.5638C15.5167 16.5575 15.5926 16.5195 15.7128 16.4847L15.9786 16.3392C16.0355 16.2886 16.0703 16.2601 16.1336 16.2127C16.1842 16.1747 16.219 16.1146 16.2633 16.0671C16.3392 15.9817 16.4278 15.8457 16.4752 15.735L16.51 15.6211C16.5606 15.4977 16.5511 15.4091 16.5733 15.2731C16.6112 15.0422 16.5765 15.0422 16.684 14.8397C16.7441 14.7258 16.8517 14.6214 16.9656 14.5613L17.1617 14.4854C17.3547 14.4475 17.5508 14.5044 17.709 14.6151C17.7406 14.6373 17.7501 14.6499 17.7849 14.6752C17.845 14.7163 17.8924 14.8081 17.9304 14.8714C17.9968 14.9821 17.9494 14.9789 18 15.0105V15.5072C17.9747 15.5452 17.9715 15.5958 17.9684 15.6432C17.9589 15.7445 17.9051 15.9311 17.8735 16.0292C17.845 16.1241 17.8165 16.1779 17.7912 16.2791L17.7153 16.4436C17.7058 16.4657 17.7026 16.4657 17.69 16.4942C17.6141 16.6524 17.5223 16.7599 17.4337 16.8865C17.3388 17.0225 17.0794 17.2819 16.9529 17.3863C16.8706 17.4559 16.5638 17.6583 16.4594 17.6995C16.3297 17.7501 16.3139 17.7817 16.1146 17.8482L15.4503 17.9937C15.406 17.9937 15.3427 17.9873 15.3047 18H2.63831C2.63199 17.9968 2.38207 17.9684 2.34728 17.9652C2.26186 17.9557 2.17012 17.9209 2.09736 17.8988C2.04359 17.8861 2.01511 17.8893 1.96134 17.8735C1.93603 17.8671 1.92021 17.864 1.8949 17.8576L1.5058 17.69L1.03761 17.3863C0.996485 17.3515 0.999649 17.3357 0.942706 17.2977C0.838313 17.225 0.642179 16.9972 0.55993 16.8706L0.310018 16.4847C0.237258 16.336 0.151845 16.1272 0.104394 15.9722C0.0980668 15.9501 0.0980668 15.9374 0.0885765 15.909C0.0695958 15.8615 0.0727592 15.8299 0.056942 15.7824C0.00949033 15.6401 0.0442882 15.5199 0 15.5199V3.86257C0.0347979 3.8594 0.0253076 3.83093 0.028471 3.79297C0.0379613 3.63163 0.107557 3.40703 0.164499 3.26151L0.306854 2.93568C0.360633 2.8123 0.490334 2.62882 0.566257 2.52127C0.67065 2.37258 0.901582 2.14165 1.03761 2.02777L1.20211 1.90756C1.38243 1.78102 1.42671 1.77153 1.6355 1.66714C1.71459 1.62601 1.67979 1.6355 1.76837 1.60703L1.96766 1.52478C2.00879 1.50264 2.00562 1.51529 2.04991 1.50264C2.09736 1.48998 2.06889 1.48682 2.11002 1.47733C2.14798 1.46784 2.16063 1.47417 2.19859 1.46151C2.26819 1.43304 2.27452 1.44253 2.35677 1.4362C2.41687 1.42988 2.47698 1.41406 2.52127 1.40773C2.61617 1.39192 3.52724 1.40141 3.67909 1.40141C3.6949 1.29701 3.68225 0.850967 3.68541 0.683304L3.71072 0.474517C3.71388 0.471353 3.71388 0.471353 3.71705 0.46819C3.74552 0.382777 3.72654 0.430228 3.78032 0.341652L4.0239 0.0949033C4.19156 -0.0189807 4.19473 0.0632689 4.21687 0ZM4.28014 12.8056C4.45097 12.7645 4.62812 12.8056 4.77047 12.9005C4.77047 12.9037 4.77364 12.9069 4.7768 12.9069L4.82742 12.9448C4.96977 13.0492 5.00141 13.1251 5.04886 13.2485C5.12162 13.4383 5.10896 13.4953 5.06784 13.7072C5.03937 13.8527 4.88752 14.0394 4.76415 14.109C4.58699 14.207 4.54903 14.2102 4.33708 14.207C4.19473 14.2039 4.24851 14.1944 4.19789 14.1786C4.12829 14.1564 4.19789 14.1944 4.0935 14.1469C4.03972 14.1216 4.02074 14.1343 3.95431 14.071L3.73286 13.7705C3.72337 13.742 3.72337 13.7167 3.71705 13.6882C3.71072 13.6598 3.70439 13.6534 3.70123 13.6281C3.64745 13.3687 3.78981 13.0587 3.92583 12.967C4.08084 12.8594 4.06503 12.8531 4.28014 12.8056ZM9.80351 11.2018C9.80351 11.0721 9.80351 10.9772 9.83199 10.8664C9.83831 10.8348 9.83831 10.8158 9.84464 10.7842C9.85097 10.7399 9.85097 10.7652 9.86995 10.7209C9.88576 10.6798 9.89842 10.6323 9.9174 10.588C9.98699 10.4267 10.0534 10.3603 10.1262 10.2496C10.1388 10.2306 10.1293 10.2401 10.1452 10.2243C10.1452 10.2211 10.1483 10.2179 10.1483 10.2179C10.2812 10.0692 10.4552 9.93322 10.6355 9.85097C10.6671 9.83831 10.7367 9.81301 10.7715 9.80668C10.8443 9.79402 10.9582 9.74974 11.0784 9.74341C11.5877 9.7181 12.3121 9.73392 12.8436 9.73392C13.0397 9.73392 13.2612 9.77821 13.4257 9.8478C13.4699 9.86678 13.5237 9.90475 13.5712 9.92689C13.7293 10.0028 13.6724 9.99332 13.8116 10.0977C13.8907 10.1547 13.935 10.2274 14.0014 10.3065C14.0678 10.3888 14.0457 10.3666 14.0963 10.452L14.1596 10.5596C14.1944 10.6197 14.2387 10.8032 14.2482 10.8728C14.2545 10.9392 14.2735 10.9803 14.2766 11.0657C14.2893 11.3631 14.2798 11.6763 14.2798 11.9768C14.2798 12.4102 14.3336 12.8594 14.207 13.2264C14.2039 13.2359 14.2007 13.239 14.1975 13.2517L14.1912 13.2675C14.1786 13.2991 14.1786 13.3244 14.1627 13.3529L14.0805 13.4984C14.0615 13.5332 14.0647 13.5427 14.0425 13.5743C13.9888 13.6534 13.8844 13.7895 13.8148 13.8464L13.7958 13.8622C13.7926 13.8654 13.7895 13.8654 13.7895 13.8685C13.7863 13.8685 13.7831 13.8717 13.7831 13.8749L13.7072 13.9318C13.6155 14.0046 13.5554 14.0299 13.4193 14.0995C13.3719 14.1248 13.2991 14.1343 13.2453 14.1564C13.1631 14.1944 12.9575 14.207 12.8436 14.207H11.2492C11.0531 14.207 10.936 14.188 10.7747 14.1343C10.6197 14.0837 10.6608 14.09 10.5248 14.0204C10.4678 13.9919 10.335 13.9097 10.2938 13.8685C10.2907 13.8654 10.2907 13.8622 10.2875 13.8622L10.2179 13.7958C10.161 13.7483 10.0946 13.6503 10.0534 13.5933C10.0281 13.5617 9.99965 13.5206 9.98383 13.4858C9.92373 13.3497 9.93005 13.4098 9.86995 13.2327C9.86046 13.1979 9.87311 13.2295 9.85413 13.2011C9.83199 13.1599 9.80984 12.9891 9.80668 12.9353C9.79719 12.3754 9.80351 11.7649 9.80351 11.2018ZM7.29174 9.74974C7.4594 9.66116 7.85167 9.80035 7.99086 9.97434L8.00352 9.98699C8.09209 10.0977 8.10474 10.1705 8.14587 10.2749C8.18699 10.3824 8.16169 10.6323 8.10474 10.7336C8.02566 10.8664 8.00668 10.9202 7.86749 11.0183C7.82636 11.0467 7.79789 11.0531 7.75044 11.0847C7.69033 11.129 7.69033 11.1005 7.61757 11.1258C7.36134 11.2081 7.04499 11.0689 6.90896 10.9012C6.80141 10.7684 6.80141 10.6893 6.76977 10.6039C6.67487 10.3445 6.85518 9.98067 7.04499 9.85729C7.22847 9.74025 7.23796 9.77504 7.29174 9.74974ZM4.39402 9.73392C4.61863 9.73392 4.51424 9.74025 4.63445 9.77188C4.80844 9.81301 4.95712 10.006 5.04253 10.1483C5.08998 10.2274 5.10264 10.3476 5.10264 10.4394C5.10264 10.6134 5.06784 10.6703 5.0109 10.7937C4.98243 10.8506 5.00773 10.838 4.96344 10.8822L4.80211 11.0278C4.78945 11.0373 4.78629 11.0373 4.77364 11.0467L4.69455 11.091C4.53005 11.1606 4.24534 11.1733 4.0935 11.0942L4.01441 11.0404C4.00492 11.0341 3.99227 11.0246 3.98594 11.0214C3.79297 10.8981 3.68858 10.664 3.68858 10.4394C3.68858 10.1736 3.82777 9.94587 4.04605 9.81933C4.06503 9.80984 4.08084 9.80351 4.09982 9.79402C4.17891 9.74974 4.30228 9.73392 4.39402 9.73392ZM13.4351 6.68436C13.5016 6.65272 13.6946 6.67487 13.7515 6.69701C13.7831 6.7065 13.7989 6.7065 13.8274 6.71599L14.09 6.9058C14.2228 7.04815 14.2798 7.21265 14.2798 7.41195C14.2766 7.51002 14.2608 7.55431 14.2387 7.63656C14.226 7.68084 14.1438 7.82003 14.1058 7.85483L13.9603 7.97188C13.8401 8.06046 13.6914 8.08893 13.5364 8.08893C13.3719 8.08576 13.277 8.02882 13.1473 7.94974C13.0524 7.89279 12.948 7.73779 12.9132 7.64921C12.8974 7.61757 12.9037 7.61125 12.8942 7.57329C12.8847 7.53533 12.8815 7.55114 12.8721 7.51951C12.8373 7.40246 12.8689 7.22531 12.91 7.12408L13.0018 6.95641C13.103 6.82988 13.0808 6.87417 13.1409 6.82039L13.2991 6.71916C13.3371 6.70334 13.3845 6.7065 13.4351 6.68436ZM10.4014 6.68752C10.4552 6.67803 10.5121 6.67487 10.5786 6.67803C10.6545 6.68436 10.6482 6.70018 10.7146 6.71283C10.819 6.72865 10.955 6.81722 11.0246 6.89631L11.0847 6.97223C11.11 7.00387 11.0974 6.98489 11.1163 7.02285C11.2334 7.23796 11.246 7.37083 11.1859 7.60176C11.1258 7.83902 10.8664 8.05413 10.6228 8.0826C10.4204 8.10791 10.3698 8.06362 10.3033 8.05413C10.2021 8.03831 10.1357 7.98453 10.0661 7.93392C9.95852 7.85167 9.92689 7.79473 9.86995 7.68717L9.84148 7.62706C9.80351 7.4594 9.80035 7.59543 9.80668 7.30756L9.85729 7.09877L9.96169 6.94376C9.99648 6.90264 9.99965 6.88366 10.0471 6.84886C10.2021 6.73181 10.2084 6.72865 10.4014 6.68752ZM7.31705 6.69069C7.41828 6.64956 7.65554 6.69069 7.77258 6.75395C7.88963 6.82039 7.98137 6.87733 8.05413 6.99754C8.10474 7.07979 8.12689 7.13989 8.15536 7.24745C8.18383 7.3645 8.1522 7.55114 8.12056 7.64288C8.1174 7.64921 8.09525 7.69033 8.08893 7.70299C8.03515 7.81054 7.94657 7.91494 7.84534 7.97821L7.60176 8.08893C7.51634 8.10474 7.34552 8.09525 7.27276 8.07311C7.17469 8.04148 7.24112 8.07627 7.13989 8.02566C6.93427 7.9181 6.81722 7.75677 6.75712 7.529C6.69385 7.28858 6.82671 7.00387 6.97223 6.86784C7.14622 6.70334 7.22214 6.73181 7.31705 6.69069ZM4.23902 6.68752C4.30545 6.65905 4.49525 6.65905 4.56169 6.68752C4.59016 6.70018 4.55852 6.69069 4.59332 6.70334C4.65026 6.72232 4.61863 6.69385 4.69455 6.73814C4.73568 6.76344 4.76731 6.7761 4.80211 6.80141C5.04569 6.97223 5.1406 7.27276 5.07416 7.55431C5.05835 7.6239 5.06151 7.63972 5.02988 7.6935C4.96977 7.79789 4.89385 7.9181 4.78629 7.97504L4.60598 8.05729C4.36239 8.14587 4.13779 8.05729 3.97645 7.95606C3.8246 7.858 3.74552 7.6935 3.69807 7.529C3.64112 7.3297 3.74552 6.99754 3.90685 6.86784L4.06186 6.76028C4.17575 6.69385 4.13779 6.72548 4.23902 6.68752ZM11.2239 11.2271V12.7297V12.7866L12.8594 12.7898L12.8626 12.7392L12.8594 12.6506V11.613V11.1511H11.2239V11.2271Z" fill="#00E194"/>
</svg>
