<svg width="20" height="35" viewBox="0 0 20 35" fill="none" xmlns="http://www.w3.org/2000/svg">
<path d="M7.48057 1.10643C7.45243 1.11017 7.42319 1.11252 7.39678 1.1141C7.39671 1.11411 7.39665 1.11411 7.39658 1.11412C7.37493 1.11541 7.35519 1.11618 7.33954 1.11678C7.28178 1.11897 7.21083 1.12031 7.133 1.1211C7.09248 1.12151 7.04932 1.12177 7.00417 1.12192M7.48057 1.10643L1.09902 2.8245C1.23982 1.8262 1.95528 1.01281 3.01379 0.758707C3.27613 0.69573 3.63061 0.63359 3.90086 0.629675C4.28894 0.624002 4.67016 0.62838 5.05388 0.632785C5.25299 0.635071 5.45277 0.637365 5.65453 0.638267C5.7105 0.638517 5.81509 0.639795 5.9467 0.641404C6.44073 0.647443 7.3154 0.658134 7.42744 0.636537L6.96348 0.726131C6.97445 0.782972 6.97786 0.827494 6.98233 0.896448L6.98284 0.904411C6.98652 0.961333 6.99121 1.03396 7.00417 1.12192M7.48057 1.10643C7.75763 2.6284 9.11982 3.59801 10.6144 3.34926M7.48057 1.10643L12.8668 0.930651C12.7315 2.1661 11.8242 3.14791 10.6144 3.34926M7.00417 1.12192C6.87525 1.12233 6.73018 1.12176 6.58435 1.1207C6.34964 1.11901 6.12005 1.11618 5.94173 1.11398C5.81252 1.11239 5.71024 1.11113 5.65241 1.11087C5.44342 1.10994 5.24025 1.1076 5.03971 1.10529C4.66022 1.10091 4.29014 1.09665 3.90776 1.10224L3.9077 1.10224C3.68771 1.10542 3.37178 1.15881 3.12411 1.21826L3.12411 1.21826C2.26303 1.42497 1.69441 2.07033 1.57135 2.86117M7.00417 1.12192C7.00704 1.14143 7.01032 1.16169 7.01409 1.1827L7.01411 1.18283C7.33274 2.95691 8.93338 4.10815 10.692 3.81546L10.6144 3.34926M1.57135 2.86117L6.80533 33.8923L7.23314 33.8937L7.23237 34.1288L7.23159 34.3664M1.57135 2.86117L1.41558 22.1359L0.942979 22.1338L1.41557 22.1376L1.41558 22.1368C1.41534 22.1934 1.41567 22.2932 1.41608 22.4193C1.41667 22.5957 1.41743 22.8236 1.41701 23.057C1.41674 23.2084 1.41596 23.3589 1.41425 23.4911M1.57135 2.86117L1.39009 23.9743M10.6144 3.34926L10.692 3.81546C12.0656 3.58684 13.1013 2.50411 13.3158 1.13802M13.3158 1.13802C13.3915 1.13724 13.4758 1.13671 13.5672 1.13641C13.9336 1.13523 14.4072 1.13788 14.8847 1.14324C15.3621 1.1486 15.8414 1.15664 16.2192 1.16616C16.4084 1.17092 16.5704 1.17601 16.6934 1.18125C16.755 1.18388 16.8049 1.18646 16.8426 1.18893C16.8738 1.19098 16.8893 1.19251 16.894 1.19297C16.8958 1.19314 16.896 1.19317 16.8951 1.19303M13.3158 1.13802C13.2398 1.13881 13.1724 1.13985 13.1153 1.14114C13.058 1.14244 13.0137 1.14394 12.9822 1.14553C12.9598 1.14667 12.9509 1.14756 12.9509 1.1475C12.9509 1.14745 12.9587 1.14655 12.9708 1.14422L12.9309 0.937669L12.8812 0.680191L13.3443 0.774142C13.3442 0.774581 13.3441 0.775185 13.3439 0.777699C13.3437 0.78135 13.3434 0.787725 13.3434 0.803702C13.3435 0.806885 13.3435 0.810729 13.3435 0.815168C13.3438 0.847538 13.3443 0.911583 13.3366 0.982096L13.3366 0.982113C13.3309 1.03447 13.3239 1.08645 13.3158 1.13802ZM16.8951 1.19303L16.9665 0.72597L16.8951 1.19303C16.8951 1.19303 16.8951 1.19303 16.8951 1.19303ZM16.8951 1.19303C17.4591 1.27919 17.8531 1.48538 18.1305 1.76811C18.4108 2.05377 18.6059 2.45211 18.7095 2.97737M18.7095 2.97737C18.7095 2.97738 18.7095 2.97738 18.7095 2.97739L19.1732 2.88597L18.7095 2.97737ZM18.7095 2.97737C18.7733 3.3008 18.7749 3.65068 18.7635 4.04442C18.7617 4.10643 18.7596 4.17 18.7574 4.23479C18.7466 4.5505 18.7349 4.89506 18.7594 5.22847C18.747 5.38365 18.7496 5.55802 18.7516 5.69318C18.7524 5.74617 18.7531 5.79313 18.7527 5.83055L18.7527 5.83162L18.6956 14.5998L18.6956 14.5999L18.6929 14.9926C18.6833 16.4279 18.6737 17.8429 18.6609 19.2815C18.6558 19.8558 18.6545 20.4244 18.6532 20.9906C18.6512 21.8464 18.6493 22.6966 18.6342 23.5524C17.2984 23.9035 16.7861 25.6004 17.8001 26.6188C18.0448 26.8645 18.2793 26.9959 18.5134 27.0659C18.5497 27.0768 18.585 27.0859 18.6189 27.0935C18.6189 27.1261 18.6188 27.1603 18.6187 27.1962C18.6178 27.4127 18.6143 27.6768 18.6105 27.9519C18.6099 28.0005 18.6092 28.0495 18.6086 28.0987C18.6042 28.4235 18.6003 28.7542 18.6013 29.022C18.6018 29.1557 18.6036 29.2774 18.6073 29.3769C18.6095 29.4358 18.6129 29.5049 18.6203 29.5688L18.6198 29.5753L18.6197 29.5937L18.6174 30.0948L18.6173 30.1333L18.6173 30.134C18.5921 30.2757 18.5873 30.4379 18.5865 30.5822C18.5858 30.7073 18.5886 30.85 18.5914 30.9943C18.5926 31.0547 18.5938 31.1153 18.5947 31.1751C18.6014 31.6034 18.5957 32.022 18.5234 32.3438C18.3642 33.0534 17.8492 33.556 17.0796 33.7989C16.7392 33.9063 16.3971 33.9352 16.0859 33.9337L14.9489 33.9286C14.9237 33.9285 14.8479 33.9292 14.7407 33.9303C14.5079 33.9326 14.1269 33.9363 13.7942 33.9359C13.561 33.9356 13.3332 33.9335 13.1481 33.9281C13.0616 33.1687 12.6284 32.4195 11.9947 31.9022C11.2103 31.2619 10.0892 30.9494 8.84913 31.379C8.84912 31.379 8.84912 31.379 8.84911 31.379L9.00383 31.8256M9.00383 31.8256C8.06119 32.1521 7.30485 33.1902 7.25694 34.13C7.25472 34.1733 7.25705 34.1999 7.25893 34.2214C7.26247 34.262 7.26445 34.2846 7.23159 34.3664M9.00383 31.8256C11.1505 31.0818 12.8088 32.9047 12.6848 34.3614L9.00383 31.8256ZM7.23159 34.3664L6.79473 34.1907C6.79285 34.1994 6.79092 34.2106 6.78965 34.2236C6.78819 34.2386 6.78804 34.2514 6.78829 34.2607C6.78838 34.2639 6.78852 34.2666 6.78861 34.2681C6.78874 34.2703 6.78878 34.2703 6.78848 34.2668L6.78829 34.2647C6.78781 34.2592 6.7867 34.2466 6.78586 34.2344C6.78348 34.1998 6.78227 34.1582 6.78494 34.106L4.12722 33.8835L4.12365 33.8836C4.08466 33.8837 4.04786 33.8839 4.01294 33.8841C3.60787 33.8865 3.45466 33.8874 3.04887 33.7926M7.23159 34.3664L4.12567 34.3562C4.08727 34.3563 4.05069 34.3565 4.01566 34.3568C3.60058 34.3592 3.40188 34.3604 2.94126 34.2528C2.60217 34.1735 2.09716 33.9867 1.76828 33.6809C1.73438 33.6493 1.70375 33.6213 1.67563 33.5956C1.51155 33.4454 1.43267 33.3732 1.28536 33.1393C0.910677 32.5444 0.899006 31.9769 0.901827 31.3454M0.901827 31.3454L1.37443 31.3484L1.37443 31.348C1.37163 31.9777 1.39031 32.4191 1.68526 32.8875C1.79808 33.0666 1.83776 33.1029 1.99049 33.2429C2.01927 33.2693 2.05206 33.2994 2.09011 33.3348L1.76856 33.6806L2.09013 33.3348C2.3316 33.5593 2.74378 33.7212 3.04887 33.7926M0.901827 31.3454L1.37443 31.3475L1.40268 27.0055M0.901827 31.3454L0.932669 26.6047M3.04887 33.7926C3.04886 33.7926 3.04885 33.7926 3.04884 33.7926L2.94143 34.252L3.04887 33.7926ZM0.932669 26.6047L1.02232 27.0688C1.06859 27.0598 1.10851 27.0541 1.15872 27.047C1.18067 27.0439 1.20459 27.0405 1.23186 27.0364C1.28238 27.0288 1.34017 27.0194 1.40268 27.0055M0.932669 26.6047L1.40527 26.6078L1.40268 27.0055M0.932669 26.6047C0.991082 26.5934 1.04727 26.5854 1.10241 26.5776C1.34771 26.5427 1.57229 26.5107 1.88007 26.2056M1.40268 27.0055C1.44067 26.9971 1.4804 26.9869 1.52129 26.9746C1.75307 26.9044 1.97582 26.7761 2.21277 26.5413M2.21277 26.5413L1.88007 26.2056M2.21277 26.5413C2.96182 25.7989 2.90253 24.6149 2.20969 23.9472L1.88173 24.2875M2.21277 26.5413C2.21277 26.5413 2.21277 26.5413 2.21278 26.5413L1.88007 26.2056M1.88007 26.2056C2.43512 25.6555 2.3893 24.7767 1.88173 24.2875M1.88173 24.2875C1.69388 24.1065 1.53608 24.0209 1.39009 23.9743M1.88173 24.2875L2.20968 23.9472C1.96285 23.7094 1.73333 23.5824 1.5011 23.514C1.47139 23.5053 1.44236 23.4977 1.41425 23.4911M1.39009 23.9743C1.40107 23.9161 1.40451 23.8459 1.40643 23.8048C1.40911 23.7476 1.41106 23.6774 1.41253 23.6003C1.41318 23.5657 1.41376 23.5292 1.41425 23.4911M1.39009 23.9743L0.925534 23.8874L1.01935 23.4242C1.06194 23.4328 1.09999 23.4382 1.15199 23.4455C1.17048 23.4481 1.19074 23.4509 1.21359 23.4543C1.27108 23.4626 1.33941 23.4735 1.41425 23.4911M19.0213 23.9653C19.0205 23.9654 19.009 23.9664 18.996 23.9675C18.9841 23.9685 18.971 23.9697 18.9636 23.9706C17.8149 24.1012 17.3357 25.4825 18.135 26.2853C18.452 26.6037 18.699 26.6362 18.9289 26.6664C18.9794 26.673 19.0291 26.6795 19.0785 26.689L19.1682 14.603L19.1656 14.9936C19.1559 16.4296 19.1463 17.8458 19.1335 19.2857C19.1284 19.8532 19.1271 20.4189 19.1258 20.984C19.1236 21.9725 19.1213 22.9592 19.099 23.9501M19.0213 23.9653L19.06 23.9592M19.0213 23.9653L19.0192 23.9483L19.0582 23.9492L19.06 23.9592M19.0213 23.9653L19.0187 23.9483L18.9609 23.947L19.0784 23.9496M19.06 23.9592C19.065 23.9583 19.0754 23.9557 19.0795 23.9549M19.06 23.9592L19.0584 23.9492L19.0784 23.9496L19.0795 23.9549M19.0795 23.9549C19.0836 23.9541 19.0927 23.9524 19.099 23.9501M19.0795 23.9549L19.0784 23.9496M19.099 23.9501L19.0563 23.836M19.099 23.9501L19.0784 23.9496M19.0784 23.9496L19.0563 23.836M18.9891 23.491L18.9891 23.491L18.9877 23.4913L18.9763 23.4936L18.9718 23.4947L18.9639 23.4959L18.9565 23.4965L18.9349 23.4985C18.9284 23.4991 18.9191 23.5 18.9102 23.501L18.9877 23.4913M18.9891 23.491C18.9886 23.4911 18.9882 23.4912 18.9877 23.4913M18.9891 23.491L19.0563 23.836M18.9891 23.491L19.0563 23.836M18.9877 23.4913L19.0555 23.834L19.0292 23.7635L18.9865 23.4923L18.9764 23.4939C18.9798 23.4931 18.9826 23.4924 18.9845 23.492C18.9855 23.4918 18.9866 23.4915 18.9877 23.4913ZM5.66308 27.0925C6.61646 26.9955 7.29825 26.1202 7.3111 25.2893C7.32407 24.4489 6.6597 23.5807 5.71267 23.4474C4.79395 23.3181 3.93193 23.9288 3.70109 24.825L3.68698 24.8798L3.6862 24.9364L3.68567 24.9746L3.68565 24.9746L3.68563 24.979L3.68546 25.0175L3.68322 25.5186L3.68305 25.5571L3.68278 25.6175L3.69771 25.676C3.79521 26.0583 3.96859 26.4756 4.47229 26.8009C4.86547 27.0548 5.30577 27.1289 5.66308 27.0925ZM5.66308 27.0925L5.61524 26.6223M5.66308 27.0925C5.66308 27.0925 5.66309 27.0925 5.66309 27.0925L5.61524 26.6223M5.61524 26.6223C5.3543 26.6489 5.02329 26.5942 4.72869 26.4039C4.36215 26.1672 4.2368 25.8773 4.15566 25.5592L4.15583 25.5207L4.15807 25.0196L4.15824 24.9811L4.15877 24.9429C4.33277 24.2673 4.97862 23.8213 5.64678 23.9154C6.3484 24.0141 6.84799 24.6703 6.83854 25.282C6.82907 25.8946 6.30949 26.5517 5.61524 26.6223ZM12.8117 33.9082C12.8038 33.9068 12.8056 33.9066 12.8141 33.9085C12.8131 33.9084 12.8124 33.9083 12.8117 33.9082ZM19.0923 29.5958L19.09 30.0969L19.0899 30.1354L19.0923 29.5958ZM18.9713 23.4953C18.9724 23.495 18.9734 23.4947 18.9744 23.4944L18.9777 23.4938L19.022 23.7442L18.9777 23.6258L18.9612 23.4981C18.964 23.4973 18.9663 23.4966 18.9682 23.4961C18.9691 23.4959 18.9699 23.4956 18.9708 23.4954L18.974 23.4951L18.9768 23.4948L18.9733 23.4951L18.9713 23.4953ZM18.9334 23.5074C18.9388 23.5054 18.9439 23.5036 18.9484 23.5021L18.9608 23.5807L18.9334 23.5074ZM8.90435 23.8321C8.31564 24.2879 8.09669 24.9824 8.21041 25.6132L7.96038 25.6121L8.54528 26.3763C9.20138 27.2335 10.3341 27.3298 11.0963 26.7635L10.8144 26.3841L11.0963 26.7635C11.9782 26.1081 12.0444 24.9572 11.4959 24.2121L11.1153 24.4923L11.4959 24.2121C10.8381 23.3186 9.66108 23.2461 8.90435 23.8321ZM12.7634 25.6893L13.2232 25.5803L12.7634 25.6893C12.8187 25.9229 12.89 26.0938 13.0289 26.3097C13.6455 27.2682 14.8269 27.3305 15.5743 26.8294C16.5161 26.1979 16.5686 25.0598 16.0987 24.3188C15.2042 22.9082 13.0513 23.3382 12.7477 25.0141L12.7477 25.0141C12.7103 25.2204 12.7106 25.4667 12.7634 25.6893Z" stroke="#00E194" stroke-width="0.945221"/>
</svg>
