<svg width="141" height="188" viewBox="0 0 141 188" fill="none" xmlns="http://www.w3.org/2000/svg">
<path d="M51.6032 187.154H18.8955C8.61588 187.154 0.205322 178.732 0.205322 168.438L0.205322 142.705C3.94335 142.705 7.21412 139.43 7.21412 135.687C7.21412 131.943 3.94335 128.668 0.205322 128.668L0.205322 18.7154C0.205322 8.42192 8.61588 0 18.8955 0L51.6032 0C51.6032 10.2935 60.0137 18.7154 70.2933 18.7154C80.5729 18.7154 88.9834 10.2935 88.9834 0L121.691 0C131.971 0 140.381 8.42192 140.381 18.7154V128.668C136.643 128.668 133.372 131.943 133.372 135.687C133.372 139.43 136.643 142.705 140.381 142.705V168.438C140.381 178.732 131.971 187.154 121.691 187.154H88.9834C88.9834 176.86 80.5729 168.438 70.2933 168.438C60.0137 168.438 51.6032 176.86 51.6032 187.154ZM124.027 135.687C124.027 131.943 120.757 128.668 117.019 128.668C113.281 128.668 110.01 131.943 110.01 135.687C110.01 139.43 113.281 142.705 117.019 142.705C120.757 142.705 124.027 139.43 124.027 135.687ZM100.665 135.687C100.665 131.943 97.394 128.668 93.656 128.668C89.9179 128.668 86.6472 131.943 86.6472 135.687C86.6472 139.43 89.9179 142.705 93.656 142.705C97.394 142.705 100.665 139.43 100.665 135.687ZM77.3021 135.687C77.3021 131.943 74.0313 128.668 70.2933 128.668C66.5553 128.668 63.2845 131.943 63.2845 135.687C63.2845 139.43 66.5553 142.705 70.2933 142.705C74.0313 142.705 77.3021 139.43 77.3021 135.687ZM53.9394 135.687C53.9394 131.943 50.6687 128.668 46.9306 128.668C43.1926 128.668 39.9218 131.943 39.9218 135.687C39.9218 139.43 43.1926 142.705 46.9306 142.705C50.6687 142.705 53.9394 139.43 53.9394 135.687ZM30.5768 135.687C30.5768 131.943 27.306 128.668 23.568 128.668C19.83 128.668 16.5592 131.943 16.5592 135.687C16.5592 139.43 19.83 142.705 23.568 142.705C27.306 142.705 30.5768 139.43 30.5768 135.687Z" fill="#00E194"/>
</svg>
