<svg width="36" height="48" viewBox="0 0 36 48" fill="none" xmlns="http://www.w3.org/2000/svg">
<path d="M13.3286 47.536H5.13985C2.56623 47.536 0.460541 45.4274 0.460541 42.8503L0.460541 36.4076C1.3964 36.4076 2.21528 35.5876 2.21528 34.6505C2.21528 33.7134 1.3964 32.8934 0.460541 32.8934L0.460541 5.36532C0.460541 2.78822 2.56623 0.679687 5.13985 0.679687L13.3286 0.679687C13.3286 3.25678 15.4343 5.36532 18.0079 5.36532C20.5816 5.36532 22.6872 3.25678 22.6872 0.679687L30.876 0.679687C33.4496 0.679687 35.5553 2.78822 35.5553 5.36532V32.8934C34.6195 32.8934 33.8006 33.7134 33.8006 34.6505C33.8006 35.5876 34.6195 36.4076 35.5553 36.4076V42.8503C35.5553 45.4274 33.4496 47.536 30.876 47.536H22.6872C22.6872 44.9589 20.5816 42.8503 18.0079 42.8503C15.4343 42.8503 13.3286 44.9589 13.3286 47.536ZM31.4609 34.6505C31.4609 33.7134 30.6421 32.8934 29.7062 32.8934C28.7703 32.8934 27.9515 33.7134 27.9515 34.6505C27.9515 35.5876 28.7703 36.4076 29.7062 36.4076C30.6421 36.4076 31.4609 35.5876 31.4609 34.6505ZM25.6118 34.6505C25.6118 33.7134 24.7929 32.8934 23.8571 32.8934C22.9212 32.8934 22.1023 33.7134 22.1023 34.6505C22.1023 35.5876 22.9212 36.4076 23.8571 36.4076C24.7929 36.4076 25.6118 35.5876 25.6118 34.6505ZM19.7627 34.6505C19.7627 33.7134 18.9438 32.8934 18.0079 32.8934C17.0721 32.8934 16.2532 33.7134 16.2532 34.6505C16.2532 35.5876 17.0721 36.4076 18.0079 36.4076C18.9438 36.4076 19.7627 35.5876 19.7627 34.6505ZM13.9135 34.6505C13.9135 33.7134 13.0947 32.8934 12.1588 32.8934C11.2229 32.8934 10.4041 33.7134 10.4041 34.6505C10.4041 35.5876 11.2229 36.4076 12.1588 36.4076C13.0947 36.4076 13.9135 35.5876 13.9135 34.6505ZM8.06441 34.6505C8.06441 33.7134 7.24553 32.8934 6.30967 32.8934C5.37381 32.8934 4.55493 33.7134 4.55493 34.6505C4.55493 35.5876 5.37381 36.4076 6.30967 36.4076C7.24553 36.4076 8.06441 35.5876 8.06441 34.6505Z" fill="#00E194"/>
</svg>
