<svg width="17" height="20" viewBox="0 0 17 20" fill="none" xmlns="http://www.w3.org/2000/svg">
<path d="M15.4048 6.93845C15.715 6.93845 16.0067 6.81767 16.2261 6.59829C16.4455 6.37885 16.5663 6.08722 16.5663 5.77693C16.5663 5.46664 16.4455 5.17501 16.2261 4.95562L15.0763 3.80578C14.8569 3.58635 14.5653 3.46558 14.255 3.46558C13.9447 3.46558 13.653 3.58635 13.4337 3.80578C13.0172 4.22216 12.984 4.87854 13.3334 5.3336L13.0598 5.58993C12.0826 4.80899 10.9119 4.26057 9.63193 4.03V3.44551C10.5522 3.41103 11.2903 2.65207 11.2903 1.72357C11.2903 0.773189 10.5171 0 9.56671 0H6.96157C6.01119 0 5.238 0.773189 5.238 1.72357C5.238 2.65207 5.97611 3.41103 6.89635 3.44551V4.03C5.60521 4.26262 4.42527 4.81866 3.44291 5.6105L3.20747 5.36589C3.5838 4.9101 3.55894 4.23215 3.13266 3.80578C2.91328 3.58635 2.62155 3.46558 2.31131 3.46558C2.00107 3.46558 1.70939 3.58635 1.49 3.80578L0.340209 4.95562C0.120822 5.17501 0 5.46664 0 5.77693C0 6.08722 0.120822 6.37885 0.340209 6.59824C0.559595 6.81767 0.851319 6.93845 1.16156 6.93845C1.42405 6.93845 1.67313 6.85165 1.87651 6.69215L2.13307 6.95875C1.15208 8.25043 0.568945 9.86003 0.568945 11.6034C0.568945 15.8465 4.02102 19.2986 8.26416 19.2986C12.5073 19.2986 15.9593 15.8465 15.9593 11.6034C15.9593 9.84789 15.368 8.22808 14.3746 6.93183L14.6579 6.66634C14.8669 6.84239 15.1284 6.93845 15.4048 6.93845ZM14.591 11.6034C14.591 15.092 11.7528 17.9303 8.26416 17.9303C4.77551 17.9303 1.93726 15.092 1.93726 11.6034C1.93726 8.11474 4.77551 5.27649 8.26416 5.27649C11.7528 5.27654 14.591 8.11474 14.591 11.6034Z" fill="#00E194"/>
<path d="M8.26335 6.72461C5.57329 6.72461 3.38477 8.91314 3.38477 11.6032C3.38477 14.2933 5.57329 16.4817 8.26335 16.4817C10.9534 16.4817 13.1419 14.2933 13.1419 11.6032C13.1419 8.91314 10.9534 6.72461 8.26335 6.72461ZM10.8555 10.2425L9.24448 11.6534C9.23258 11.8881 9.13807 12.1194 8.95882 12.2987C8.57474 12.6828 7.95197 12.6828 7.56788 12.2987C7.1838 11.9145 7.1838 11.2918 7.56788 10.9077C7.78038 10.6952 8.06586 10.6008 8.34363 10.6235L9.954 9.21316C10.2383 8.96427 10.6704 8.99282 10.9194 9.27706C11.1684 9.56135 11.1397 9.99356 10.8555 10.2425Z" fill="#00E194"/>
</svg>
