<svg width="27" height="23" viewBox="0 0 27 23" fill="none" xmlns="http://www.w3.org/2000/svg">
<path d="M26.2184 3.46975C26.0876 3.50794 25.9569 3.54349 25.8262 3.57661C25.0272 3.77836 24.9537 3.51213 25.5322 2.92476C25.7913 2.66155 26.0202 2.37527 26.219 2.06608C26.6646 1.37272 26.2781 1.07036 25.52 1.39423C25.2496 1.50977 24.9747 1.61452 24.696 1.70792C23.9148 1.97025 22.8063 1.57453 22.1103 1.13307C21.2316 0.575836 20.2329 0.297363 19.114 0.297363C17.5467 0.297363 16.2108 0.850114 15.1056 1.95474C14.0007 3.05994 13.4479 4.39622 13.4479 5.96313C13.4479 6.17742 13.4602 6.39498 13.4844 6.61556C13.524 6.9746 12.9194 7.23488 12.1034 7.11964C10.3382 6.87043 8.66112 6.33558 7.07178 5.51567C5.49556 4.70264 4.10442 3.67951 2.8986 2.44623C2.3222 1.85681 1.54262 1.90758 1.3274 2.70325C1.19846 3.18021 1.13433 3.67624 1.13433 4.19144C1.13433 5.16234 1.36232 6.06281 1.81841 6.89286C2.04524 7.30594 2.31088 7.6799 2.61593 8.01451C3.12904 8.57774 3.05052 8.90454 2.33629 8.7043C1.62236 8.50405 1.09916 8.20676 1.09916 8.22617C1.09916 8.24558 1.09916 8.26138 1.09916 8.26138C1.09916 9.62926 1.52867 10.8312 2.38823 11.866C2.91772 12.5035 3.53284 12.9959 4.23337 13.3428C4.97207 13.7087 5.31619 13.9128 4.90311 13.9663C4.6539 13.9985 4.40318 14.0146 4.15099 14.0146C3.9803 14.0146 3.80122 14.0068 3.61439 13.991C3.31889 13.966 3.26578 14.5817 3.71378 15.2736C4.06984 15.8233 4.52559 16.3071 5.08078 16.725C5.64548 17.1503 6.25407 17.4556 6.90558 17.6416C7.69832 17.8675 7.85741 18.2792 7.15059 18.703C5.40158 19.7524 3.46603 20.2771 1.34423 20.2771C1.10516 20.2771 0.877117 20.2717 0.659265 20.2613C0.281109 20.2431 0.534806 20.5761 1.26483 20.9585C3.54601 22.1533 6.01642 22.7502 8.67639 22.7502C10.6875 22.7502 12.5762 22.4318 14.3422 21.7945C16.1076 21.1573 17.6164 20.3033 18.8675 19.2333C20.1187 18.1633 21.1977 16.9327 22.1041 15.541C23.0103 14.1492 23.6854 12.6963 24.1301 11.1822C24.5742 9.66774 24.7966 8.15033 24.7966 6.62995C24.7966 6.49296 24.7954 6.36996 24.7933 6.26164C24.7892 6.05808 25.3276 5.50709 25.9287 4.94331C26.2 4.68874 26.4588 4.42158 26.7059 4.14135C27.2511 3.52257 27.0097 3.23902 26.2184 3.46975Z" fill="white"/>
</svg>
