<svg width="31" height="31" viewBox="0 0 31 31" fill="none" xmlns="http://www.w3.org/2000/svg">
<path fill-rule="evenodd" clip-rule="evenodd" d="M16.8632 0.0486415C20.4631 0.334758 23.8495 1.87152 26.4352 4.39251C28.4259 6.38243 29.8359 8.87785 30.5132 11.6099C31.1906 14.3419 31.1095 17.207 30.2788 19.8964C29.4481 22.5858 27.8993 24.9975 25.7993 26.8717C23.6992 28.7459 21.1275 30.0114 18.3613 30.5321C17.4171 30.7032 16.4596 30.7912 15.4999 30.795C13.2156 30.7779 10.9642 30.2494 8.91089 29.2483L1.88879 30.795C1.63067 30.8491 1.36302 30.8362 1.11125 30.7577C0.859492 30.6792 0.631983 30.5376 0.450343 30.3464C0.269581 30.1648 0.136786 29.9411 0.0638922 29.6954C-0.00900175 29.4497 -0.01971 29.1898 0.0327296 28.9389L1.57945 21.9168C0.0735822 18.6345 -0.236285 14.9287 0.70356 11.4418C1.64341 7.95499 3.77371 4.90691 6.72519 2.826C9.67667 0.745087 13.2633 -0.237475 16.8632 0.0486415ZM16.5518 21.9168C17.994 22.6392 19.5793 23.0303 21.192 23.0614C21.4649 23.0786 21.7387 23.0786 22.0117 23.0614C22.3777 23.0021 22.7102 22.8133 22.9487 22.5294C23.1872 22.2455 23.3157 21.8854 23.311 21.5147V18.7924C23.3247 18.4473 23.2225 18.1075 23.0207 17.8272C22.8189 17.5469 22.529 17.3422 22.1973 17.2457L20.0319 16.627C19.7633 16.545 19.4774 16.5376 19.2049 16.6057C18.9324 16.6739 18.6836 16.8149 18.4852 17.0137L16.9385 18.5604C16.0139 17.9778 15.1578 17.2929 14.3864 16.5188C13.6159 15.7442 12.9313 14.8885 12.3447 13.9667L13.8915 12.42C14.0903 12.2216 14.2313 11.9728 14.2994 11.7003C14.3676 11.4278 14.3602 11.1419 14.2781 10.8733L13.6594 8.70785C13.563 8.37617 13.3583 8.08632 13.078 7.88449C12.7977 7.68266 12.4579 7.58047 12.1127 7.59421H9.31317C8.94244 7.58944 8.58233 7.718 8.29843 7.95647C8.01453 8.19495 7.82575 8.52746 7.76645 8.89346C7.6264 10.7534 8.01799 12.6147 8.89556 14.2606L9.0193 14.508C9.81863 16.0623 10.8632 17.4777 12.1127 18.6996C13.3377 19.9458 14.7525 20.9899 16.3043 21.7931L16.5518 21.9168Z" fill="white"/>
</svg>
